<svg width="100" height="83" viewBox="0 0 100 83" fill="none" xmlns="http://www.w3.org/2000/svg">
    <path d="M79.0559 1.94004C78.917 0.493814 80.7404 -0.547465 81.9136 0.311012C82.8276 0.843221 82.7952 1.99326 82.7513 2.9119C88.1983 5.66087 93.6685 8.37282 99.134 11.0848C100.111 11.6517 100.273 13.1766 99.4672 13.9564C99.0253 14.403 98.3982 14.5742 97.8567 14.8635C92.8285 17.3625 87.8072 19.8824 82.7744 22.3746C82.7119 25.6581 82.7883 28.9462 82.7374 32.2297C82.7281 33.47 81.2726 34.3493 80.1619 33.8147C79.4677 33.5209 79.0119 32.7758 79.0536 32.0237C79.0466 21.9974 79.042 11.9687 79.0559 1.94004ZM82.7466 7.05619C82.7559 10.7932 82.7582 14.5326 82.7443 18.2696C86.4929 16.3953 90.2323 14.5071 93.9924 12.6629C90.2323 10.8164 86.4975 8.91892 82.7466 7.05619Z" fill="#566488"/>
    <path d="M38.0805 30.3646C38.9529 30.2396 39.8299 30.2049 40.7092 30.2651C51.5917 30.2767 62.4742 30.2651 73.3544 30.272C74.4373 30.1772 75.4555 31.1583 75.3375 32.2528C75.2958 33.2593 74.3332 34.0461 73.3452 33.972C63.7052 33.972 54.0653 33.9697 44.4254 33.972C42.5025 33.972 40.5796 33.9535 38.6567 34.0276C35.1441 34.3099 31.9694 36.839 30.8286 40.1596C30.146 42.0038 30.2825 44.0077 30.3473 45.9352C30.655 50.0748 34.0982 53.6869 38.2055 54.2284C39.1241 54.3881 40.2626 54.1405 40.9336 54.9573C41.7875 55.8458 41.3987 57.4911 40.2371 57.9006C39.2606 58.1945 38.2124 57.933 37.2267 57.815C31.7796 56.8987 27.2882 52.1343 26.7005 46.6409C26.4922 43.9544 26.4483 41.1476 27.4618 38.6023C29.1163 34.171 33.3716 30.8505 38.0805 30.3646Z" fill="#566488"/>
    <path d="M10.3044 48.3927C12.8614 47.8836 15.5803 48.1543 17.9659 49.2118C22.0292 50.9542 25.0328 54.9319 25.5603 59.3261C25.9352 61.7049 25.4354 64.1808 24.253 66.2703C22.6147 69.2113 20.0161 71.4235 17.7855 73.8925C16.2351 75.6464 14.6662 77.722 14.7334 80.1841C14.7334 80.9986 14.2173 81.827 13.4028 82.0376C12.2181 82.4957 10.8737 81.4267 10.9362 80.1864C11.0218 77.7197 9.4506 75.6325 7.89331 73.8809C5.44283 71.1574 2.49485 68.7346 0.951446 65.3308C-0.277264 62.7184 -0.247182 59.6616 0.648318 56.9543C2.03206 52.6457 5.86397 49.2535 10.3044 48.3927ZM6.69699 54.2215C4.5751 56.119 3.42043 59.0646 3.76753 61.8969C3.9943 63.6324 4.97541 65.1503 6.05371 66.4855C8.24965 69.135 11.0079 71.3216 12.8475 74.2627C14.738 71.2221 17.6258 69.0054 19.8356 66.2217C20.87 64.9004 21.7678 63.3755 21.9297 61.6725C22.1611 59.0831 21.1777 56.4198 19.3474 54.5779C17.6883 52.8702 15.3327 51.8613 12.9493 51.8428C10.6631 51.8011 8.37692 52.6712 6.69699 54.2215Z" fill="#2DD792"/>
    <path d="M48.6811 54.3766C51.8905 54.2771 55.1069 54.3627 58.3187 54.3349C59.2489 54.247 60.2 54.9018 60.3457 55.8436C60.591 56.9335 59.6515 58.0604 58.5408 58.0303C55.3777 58.0442 52.2122 58.0396 49.049 58.0326C48.017 58.0627 47.1053 57.1001 47.2002 56.0704C47.2349 55.2559 47.8758 54.5131 48.6811 54.3766Z" fill="#566488"/>
    <path d="M67.6622 54.3766C70.9504 54.284 74.2454 54.3511 77.5336 54.3442C78.5633 54.3211 79.4611 55.2975 79.3523 56.3226C79.3014 57.2575 78.4499 58.0535 77.5081 58.0303C74.3472 58.0442 71.1841 58.0419 68.0209 58.0303C67.174 58.0535 66.3803 57.4056 66.2183 56.5795C65.9754 55.6099 66.6765 54.5363 67.6622 54.3766Z" fill="#566488"/>
    <path d="M86.1375 54.55C86.4106 54.4066 86.7021 54.3395 87.0122 54.3441C90.2656 54.3325 93.5005 55.6191 95.8608 57.8613C98.3066 60.1382 99.7991 63.3893 99.9426 66.7284C99.9703 68.4314 100.037 70.1577 99.6672 71.833C98.9383 75.3224 96.6868 78.4532 93.6185 80.2673C91.7558 81.4012 89.5969 81.9843 87.431 82.1069C65.0713 82.093 42.7069 82.1069 20.3449 82.1C19.2967 82.174 18.3225 81.2345 18.3965 80.1794C18.4012 79.1728 19.3476 78.3329 20.3426 78.4023C41.6379 78.3953 62.9309 78.4023 84.2239 78.4C86.1514 78.3444 88.1507 78.5573 89.9995 77.8909C92.767 76.963 95.0115 74.6352 95.8469 71.8376C96.3513 70.2618 96.268 68.5865 96.2402 66.9551C96.1731 64.7337 95.2545 62.5586 93.725 60.9481C92.0682 59.171 89.6825 58.102 87.2529 58.0487C86.6119 58.0511 85.9223 57.8613 85.5382 57.3129C84.8348 56.4614 85.1448 55.036 86.1375 54.55Z" fill="#566488"/>
</svg>
