<svg width="14" height="15" viewBox="0 0 14 15" fill="none" xmlns="http://www.w3.org/2000/svg">
    <path d="M3.29248 0.277685C3.58334 -0.0984639 4.21609 -0.0889873 4.49893 0.292265C4.77594 0.652377 4.62869 1.13496 4.67024 1.55193C6.22295 1.5512 7.77566 1.54828 9.32764 1.55339C9.37429 1.12256 9.21173 0.60791 9.53539 0.2529C9.8248 -0.0889873 10.4116 -0.0831557 10.6952 0.263835C11.0014 0.621031 10.8534 1.12402 10.8876 1.5512C11.438 1.55557 11.9884 1.54245 12.5388 1.5563C13.2801 1.58327 13.9347 2.21675 13.9887 2.95593C14.0106 3.5238 13.9931 4.09239 13.9982 4.66099C9.33274 4.66172 4.66732 4.66026 0.00190338 4.66172C0.00846413 4.09385 -0.011218 3.52453 0.0106511 2.95739C0.064595 2.21675 0.721398 1.58182 1.46349 1.5563C2.01314 1.54245 2.56278 1.55557 3.11243 1.5512C3.14742 1.1284 3.00162 0.637068 3.29248 0.277685Z" fill="white"/>
    <path d="M0.0027784 6.00017C4.66877 6.00017 9.33409 5.9995 13.9994 6.00084C13.9974 8.69385 14.0035 11.3875 13.9967 14.0805C14.0048 14.3921 13.7047 14.6451 13.3998 14.6135C9.11203 14.6121 4.82422 14.6168 0.5364 14.6108C0.224167 14.6189 -0.0295215 14.3187 0.0027784 14.0132C0.0027784 11.3424 0.00210548 8.67164 0.0027784 6.00017ZM8.71097 7.84597C7.93174 8.782 7.14712 9.71533 6.37327 10.6561C5.96279 10.4306 5.59336 10.1393 5.19634 9.89298C5.02071 9.76109 4.77173 9.72139 4.5786 9.84117C4.263 10.0081 4.21523 10.5 4.50391 10.716C5.04628 11.0955 5.6048 11.4535 6.15457 11.8229C6.39009 11.9999 6.73866 11.9245 6.90689 11.6917C7.79312 10.6271 8.68338 9.56595 9.56558 8.49736C9.76812 8.26924 9.71631 7.88298 9.46262 7.71408C9.22912 7.53711 8.87651 7.61113 8.71097 7.84597Z" fill="white"/>
</svg>
