<svg width="69" height="73" viewBox="0 0 69 73" fill="none" xmlns="http://www.w3.org/2000/svg">
    <g filter="url(#filter0_d_403_248)">
        <path d="M14.1666 23.875C14.1666 16.6861 14.1666 13.0916 16.3999 10.8583C18.6332 8.625 22.2277 8.625 29.4166 8.625H39.5833C46.7722 8.625 50.3667 8.625 52.6 10.8583C54.8333 13.0916 54.8333 16.6861 54.8333 23.875V41.2285C54.8333 48.0485 54.8333 51.4585 52.6874 52.5015C50.5415 53.5445 47.8601 51.4377 42.4974 47.2242L40.7811 45.8757C37.7658 43.5065 36.2581 42.3219 34.5 42.3219C32.7418 42.3219 31.2341 43.5065 28.2188 45.8757L26.5025 47.2242C21.1398 51.4377 18.4585 53.5445 16.3125 52.5015C14.1666 51.4585 14.1666 48.0485 14.1666 41.2285V23.875Z" fill="#2DD792" stroke="#2DD792" stroke-width="2"/>
    </g>
    <defs>
        <filter id="filter0_d_403_248" x="-9" y="-6" width="87" height="87" filterUnits="userSpaceOnUse" color-interpolation-filters="sRGB">
            <feFlood flood-opacity="0" result="BackgroundImageFix"/>
            <feColorMatrix in="SourceAlpha" type="matrix" values="0 0 0 0 0 0 0 0 0 0 0 0 0 0 0 0 0 0 127 0" result="hardAlpha"/>
            <feOffset dy="6"/>
            <feGaussianBlur stdDeviation="6.5"/>
            <feComposite in2="hardAlpha" operator="out"/>
            <feColorMatrix type="matrix" values="0 0 0 0 0.0495833 0 0 0 0 0.7 0 0 0 0 0.435497 0 0 0 0.29 0"/>
            <feBlend mode="normal" in2="BackgroundImageFix" result="effect1_dropShadow_403_248"/>
            <feBlend mode="normal" in="SourceGraphic" in2="effect1_dropShadow_403_248" result="shape"/>
        </filter>
    </defs>
</svg>
