<svg width="18" height="38" viewBox="0 0 18 38" fill="none" xmlns="http://www.w3.org/2000/svg">
    <path d="M6.87097 0.0136255C8.27085 -0.00324052 9.6726 -0.00511456 11.0725 0.0117514C12.4892 0.0136254 13.786 1.16051 13.9547 2.56601C14.099 3.36809 13.846 4.21888 14.1215 4.99472C15.2159 7.2229 16.344 9.43235 17.4422 11.6587C17.8058 12.3858 17.9988 13.1953 17.9932 14.0105C17.9913 16.1563 18.0175 18.302 17.9782 20.4477C17.9444 21.5365 17.1667 22.3573 16.4115 23.047C17.163 23.7516 17.9557 24.5724 17.9782 25.6743C18.0213 28.5884 17.9819 31.5043 17.9969 34.4203C18.0138 35.1361 17.9632 35.8951 17.5659 36.5154C17.0243 37.4524 15.9449 38.0127 14.8692 37.9809C10.9282 37.9827 6.98716 37.9865 3.04801 37.979C1.9461 37.9884 0.853554 37.3643 0.356944 36.3748C0.0271198 35.7808 -0.00661246 35.0855 0.000883537 34.4203C0.0252455 31.4912 -0.0234787 28.5603 0.0233713 25.6293C0.0421113 24.5274 0.827318 23.6916 1.59004 22.9926C1.07656 22.4791 0.499368 21.9788 0.23326 21.2835C0.00650585 20.7588 0.000883937 20.1741 0.00275794 19.6119C0.0158759 17.7398 -0.00473861 15.8677 0.0102534 13.9955C0.0121274 13.2028 0.203276 12.4139 0.56121 11.7055C1.62189 9.56915 2.6807 7.43092 3.74514 5.29643C4.23425 4.52997 3.88943 3.58734 4.02811 2.7403C4.11056 1.28232 5.42237 0.0548535 6.87097 0.0136255ZM6.00705 3.9584C8.00286 3.9584 10.0005 3.95652 11.9964 3.96027C11.9664 3.41681 12.1369 2.77965 11.7415 2.33176C11.4098 1.92511 10.8476 2.00569 10.3847 2.00007C9.18536 2.02443 7.98225 1.96446 6.78476 2.0263C5.89274 2.20808 5.96395 3.25752 6.00705 3.9584ZM2.38649 12.5244C2.13537 12.9873 2.01918 13.5027 2.00044 14.0255C3.46591 13.9356 4.94824 14.0668 6.35936 14.4715C8.02535 14.9026 9.61638 15.6128 11.3236 15.8695C12.8771 16.1207 14.4588 15.9333 15.9973 15.669C15.9505 14.6421 16.1623 13.5439 15.6731 12.5882C14.5862 10.405 13.4956 8.22549 12.4049 6.04603C10.1411 6.03854 7.8773 6.04603 5.61351 6.04041C4.52284 8.19363 3.46591 10.3656 2.38649 12.5244ZM2.00044 19.8106C2.00606 20.1498 1.97983 20.5489 2.25343 20.8038C2.73318 21.3379 3.27476 21.812 3.75825 22.3442C4.08995 22.6965 4.08246 23.2999 3.74888 23.6485C3.27664 24.1714 2.74067 24.6342 2.26655 25.1571C1.9892 25.4157 2.00232 25.8186 2.00044 26.1653C2.01543 29.1019 1.99669 32.0403 2.00981 34.9768C1.9817 35.5409 2.51204 36.0338 3.07424 35.9813C7.0059 35.9869 10.9375 35.9813 14.8692 35.9851C15.4276 36.0469 15.9992 35.5934 15.9899 35.0181C16.0086 32.1359 15.988 29.2518 15.9992 26.3677C15.9898 25.9985 16.0404 25.5769 15.7837 25.2714C15.2965 24.7036 14.7118 24.2257 14.2189 23.6654C13.9116 23.3093 13.9285 22.7265 14.2583 22.3911C14.738 21.8626 15.2834 21.396 15.7575 20.86C15.9805 20.6351 15.9955 20.3015 15.9973 20.0036C15.9992 19.2371 15.9936 18.4688 15.9992 17.7023C14.337 17.9628 12.6335 18.1165 10.9638 17.8391C8.908 17.5243 7.00964 16.6154 4.9801 16.1956C4.00749 15.9951 3.01053 15.9726 2.02293 16.0195C1.98545 17.2825 2.01731 18.5456 2.00044 19.8106Z" fill="#24304F"/>
</svg>
