<svg width="22" height="19" viewBox="0 0 22 19" fill="none" xmlns="http://www.w3.org/2000/svg">
    <path d="M6.73768 1.13488C7.00741 0.889862 7.51772 0.993449 7.63124 1.34007C7.68539 1.57712 7.66352 1.82314 7.66873 2.06418C9.88908 2.0582 12.1105 2.06119 14.3308 2.06218C14.3517 1.76537 14.2538 1.41178 14.4787 1.16676C14.7245 0.884882 15.2629 0.976516 15.3962 1.32015C15.4796 1.5582 15.4348 1.81716 15.4452 2.06418C16.4408 2.06617 17.4375 2.04625 18.4331 2.07115C19.7995 2.13987 20.9742 3.30722 20.9919 4.61599C21.0044 8.16882 20.994 11.7226 20.9971 15.2765C21.0711 16.7307 19.7089 18.0564 18.1831 17.9966C13.6008 18.0016 9.0174 17.9946 4.43504 17.9996C3.98722 17.9966 3.53107 18.0205 3.09262 17.9159C1.90538 17.646 0.999322 16.5494 1.00349 15.381C1.00245 11.7934 0.994114 8.20468 1.00765 4.61699C1.02015 3.29526 2.22406 2.11896 3.60293 2.06916C4.58501 2.04724 5.56814 2.06816 6.55126 2.06119C6.57313 1.75242 6.47211 1.37393 6.73768 1.13488ZM2.14908 4.40982C2.06993 5.03831 2.13241 5.67377 2.11158 6.30625C8.03636 6.31621 13.9601 6.31024 19.8849 6.30924C19.8797 5.74748 19.8984 5.18672 19.8776 4.62596C19.8505 3.8371 19.1152 3.1369 18.2873 3.12992C17.3406 3.112 16.3929 3.13192 15.4452 3.12295C15.4379 3.36001 15.4723 3.60503 15.4077 3.8381C15.2994 4.18571 14.7818 4.30125 14.5141 4.05025C14.2444 3.81718 14.3527 3.43072 14.3308 3.12395C12.1105 3.12494 9.89013 3.12395 7.66873 3.12395C7.64894 3.43272 7.75204 3.81519 7.48023 4.05125C7.26256 4.25643 6.86265 4.22057 6.67936 3.98949C6.48981 3.7385 6.56792 3.41379 6.55334 3.12594C5.60042 3.12992 4.6475 3.11299 3.69458 3.12992C2.95411 3.15084 2.26988 3.70762 2.14908 4.40982ZM2.11158 7.37399C2.11367 9.84214 2.11262 12.3113 2.11158 14.7804C2.11471 15.2037 2.06784 15.6579 2.2855 16.0444C2.56357 16.5862 3.17594 16.9488 3.80914 16.9338C8.59978 16.9368 13.3915 16.9368 18.1821 16.9338C19.0725 16.9717 19.8942 16.2237 19.8807 15.3691C19.8911 12.7037 19.8869 10.0394 19.8828 7.37399C13.959 7.37399 8.03532 7.37499 2.11158 7.37399Z" fill="#566488" stroke="#566488" stroke-width="0.5"/>
</svg>
