<svg width="25" height="17" viewBox="0 0 25 17" fill="none" xmlns="http://www.w3.org/2000/svg">
    <path d="M6.15277 0.346491C7.80136 0.127591 9.4646 0.0513665 11.1249 0.0103228C13.6999 -0.0258348 16.2837 0.0210723 18.8411 0.344536C19.2017 0.377762 19.5516 0.539983 19.793 0.813608C20.0373 1.06964 20.1184 1.42535 20.2347 1.74882C20.6627 2.98893 21.0204 4.25346 21.2881 5.53852C21.6214 5.12613 22.1637 5.03036 22.6651 5.0802C23.3081 5.1359 24.0693 4.90332 24.6009 5.38314C25.1619 5.85026 25.1257 6.82065 24.5286 7.24086C24.1133 7.57312 23.5504 7.48028 23.0579 7.48908C23.5016 8.04415 23.7586 8.74775 23.742 9.46113C23.739 11.5807 23.7488 13.7013 23.7371 15.8219C23.7537 16.1288 23.482 16.4327 23.1664 16.4034C21.9527 16.4034 20.7389 16.4044 19.5252 16.4024C19.2193 16.422 18.9643 16.1219 18.9731 15.8278C18.9701 15.604 18.9623 15.3802 18.9653 15.1564C14.6537 15.1633 10.3412 15.1574 6.02963 15.1594C5.99836 15.5112 6.12931 15.9304 5.87621 16.2246C5.75894 16.3829 5.55079 16.4151 5.36805 16.4053C4.19244 16.4014 3.01781 16.4053 1.8422 16.4034C1.52655 16.4386 1.24902 16.1366 1.26074 15.8307C1.25488 13.6759 1.25781 11.5202 1.25879 9.36536C1.25781 8.68326 1.51971 8.02069 1.93992 7.4881C1.44642 7.47931 0.881577 7.57605 0.467231 7.23988C-0.127904 6.81479 -0.161129 5.84244 0.405665 5.37826C0.939234 4.90528 1.69854 5.1359 2.34156 5.07923C2.8419 5.02645 3.3784 5.13297 3.71066 5.54048C4.0136 4.09808 4.42404 2.67914 4.92439 1.29343C5.09638 0.768655 5.60552 0.388512 6.15277 0.346491ZM6.12736 1.54458C6.05016 1.69996 5.97198 1.85631 5.92409 2.02342C5.50095 3.26353 5.13351 4.52513 4.87161 5.81019C7.57757 5.29128 10.3412 5.13395 13.0921 5.17011C15.4521 5.1789 17.8131 5.37142 20.133 5.81019C19.8438 4.445 19.4529 3.10326 18.9907 1.78693C18.9486 1.68432 18.9086 1.53871 18.7698 1.53969C17.1681 1.32275 15.5489 1.24163 13.9335 1.20157C11.3282 1.15271 8.71507 1.21916 6.12736 1.54458ZM4.60678 8.40181C3.94129 8.56697 3.48101 9.27741 3.6061 9.95268C3.70773 10.6788 4.46313 11.226 5.18628 11.0853C5.93289 10.9827 6.48112 10.1882 6.30717 9.45331C6.17622 8.69987 5.34069 8.18194 4.60678 8.40181ZM19.6513 8.41061C18.9955 8.58651 18.548 9.29989 18.6848 9.96734C18.7903 10.669 19.5076 11.2016 20.2102 11.0921C20.9735 11.0179 21.5539 10.2156 21.3859 9.467C21.2608 8.69498 20.3949 8.16923 19.6513 8.41061ZM9.09912 11.2446C8.79715 11.3511 8.60953 11.6961 8.68575 12.0078C8.75318 12.3176 9.06101 12.5463 9.37763 12.5248C11.4601 12.5287 13.5436 12.5287 15.6261 12.5248C15.9769 12.5502 16.313 12.2609 16.3267 11.9071C16.3668 11.5231 16.0091 11.1693 15.6251 11.2055C13.6081 11.2016 11.5901 11.2074 9.5721 11.2026C9.41476 11.2084 9.25059 11.1908 9.09912 11.2446Z" fill="#A3AEC9"/>
</svg>
