<svg width="26" height="21" viewBox="0 0 26 21" fill="none" xmlns="http://www.w3.org/2000/svg">
    <path d="M6.35454 1.38283C8.14004 0.447628 10.1698 0.0905271 12.1682 0.0125932C14.6702 -0.0653407 17.2676 0.198704 19.5219 1.3619C21.0643 2.1517 22.3508 3.43122 23.0952 5.00269C23.8641 5.01432 24.6376 4.9643 25.4041 5.02479C26.0683 5.14809 26.2265 6.14029 25.6263 6.45668C25.1052 6.68467 24.5062 6.53927 23.9525 6.56253C25.2634 7.77923 25.9311 9.61591 25.7985 11.3898C25.717 12.6763 25.2111 13.922 24.3922 14.9143C24.4271 15.6378 24.4003 16.3624 24.4096 17.0871C24.4096 17.621 24.4468 18.1782 24.2398 18.683C23.899 19.5752 23.0138 20.2324 22.0576 20.2766C21.5168 20.2952 20.9759 20.2882 20.4362 20.2777C19.4451 20.2533 18.5239 19.5589 18.2017 18.626C17.99 18.0339 18.0772 17.3965 18.0586 16.7812C14.6993 16.7765 11.3411 16.7812 7.98185 16.7789C7.9644 17.4116 8.05862 18.0746 7.81435 18.6772C7.46655 19.6031 6.53135 20.2696 5.54031 20.2812C4.96337 20.2824 4.38293 20.3056 3.80599 20.2603C2.67304 20.1428 1.71224 19.1413 1.64478 18.0037C1.60755 17.0313 1.65292 16.0577 1.62733 15.0852C1.16089 14.4315 0.672347 13.772 0.435056 12.9903C-0.344283 10.7931 0.23964 8.17937 1.93674 6.56835C1.36096 6.50786 0.616514 6.78121 0.177991 6.27987C-0.212842 5.85415 0.0826088 5.0876 0.650247 5.01781C1.37492 4.97012 2.10191 5.01665 2.82774 4.99455C3.55009 3.43354 4.83076 2.16683 6.35454 1.38283ZM7.61195 2.52393C6.10329 3.17066 4.83192 4.36991 4.17356 5.88323C10.0581 5.88555 15.9416 5.88323 21.8262 5.88439C21.2585 4.61651 20.2849 3.53823 19.0671 2.86707C17.2246 1.8423 15.0692 1.57825 12.9917 1.57011C11.1655 1.57243 9.29975 1.78646 7.61195 2.52393ZM3.37561 7.47331C1.43657 8.85402 1.17601 11.9051 2.64396 13.7243C3.34885 14.6432 4.48995 15.2074 5.65197 15.1806C10.5781 15.1818 15.5031 15.1841 20.428 15.1795C21.6761 15.1818 22.8695 14.4897 23.5361 13.444C24.7318 11.6631 24.4527 9.01919 22.816 7.60126C22.652 7.41748 22.3961 7.45935 22.1763 7.4547C15.909 7.47331 9.64056 7.43609 3.37561 7.47331ZM19.6335 16.7777C19.6359 17.1511 19.6161 17.5268 19.6452 17.9002C19.6847 18.3387 20.093 18.7097 20.5339 18.7051C21.0084 18.7121 21.483 18.7191 21.9564 18.7051C22.4264 18.6981 22.8358 18.2689 22.8323 17.8013C22.8498 17.2569 22.823 16.7125 22.844 16.1682C21.8669 16.7079 20.7328 16.837 19.6335 16.7777ZM3.20345 16.2391C3.21276 16.7556 3.19299 17.272 3.21043 17.7885C3.1988 18.2398 3.57451 18.6644 4.02583 18.7004C4.45621 18.7225 4.88659 18.7051 5.31814 18.7121C5.62638 18.7307 5.9544 18.6516 6.16145 18.4085C6.56159 17.9641 6.36501 17.3174 6.40921 16.7789C5.31698 16.8277 4.19217 16.7498 3.20345 16.2391Z" fill="#A3AEC9"/>
    <path d="M5.34379 10.1487C6.02891 9.82998 6.90712 10.2522 7.10486 10.9757C7.33866 11.6701 6.85594 12.4809 6.1429 12.624C5.45895 12.7961 4.70403 12.3052 4.57492 11.6143C4.44232 11.0234 4.78429 10.3767 5.34379 10.1487Z" fill="#A3AEC9"/>
    <path d="M19.5416 10.1498C20.2232 9.82995 21.1002 10.2464 21.3026 10.9641C21.5353 11.6434 21.0863 12.4448 20.3918 12.6111C19.7381 12.8042 18.9949 12.3797 18.8064 11.7306C18.6017 11.1164 18.946 10.3941 19.5416 10.1498Z" fill="#A3AEC9"/>
</svg>
