<svg width="24" height="26" viewBox="0 0 24 26" fill="none" xmlns="http://www.w3.org/2000/svg">
    <path d="M22.2543 0.0893309C22.9246 -0.182416 23.7725 0.187425 23.95 0.905897C24.1632 1.59123 23.6678 2.34152 22.9736 2.46612C21.8132 2.77896 20.4354 3.44971 20.242 4.77266C20.1917 7.42517 20.2328 10.0803 20.2208 12.7342C20.2513 14.3169 20.254 16.0362 19.3028 17.387C18.3516 18.82 16.5871 19.4761 14.9192 19.4669C10.4112 19.4801 5.90178 19.4682 1.39371 19.4735C0.976414 19.5013 0.545875 19.3542 0.279603 19.0228C-0.139013 18.5363 -0.0820495 17.725 0.413401 17.3128C0.673049 17.0596 1.04795 16.992 1.39768 16.996C5.85939 16.9946 10.3211 16.9973 14.7828 16.9946C15.5644 16.9893 16.4268 16.8554 17.0057 16.2828C17.5912 15.7101 17.7343 14.8458 17.7449 14.0611C17.7489 11.056 17.7449 8.05218 17.7462 5.04705C17.7462 4.22916 17.9489 3.40332 18.3848 2.70738C19.2445 1.34599 20.7388 0.518823 22.2543 0.0893309Z" fill="white"/>
    <path d="M4.89765 3.50138C4.93474 2.78689 5.57326 2.15325 6.29524 2.15723C7.53519 2.13867 8.77515 2.15325 10.0151 2.1506C10.7503 2.11481 11.4485 2.72326 11.5001 3.46029C11.5372 4.14695 11.5054 4.83493 11.5134 5.52292C12.6036 5.5322 13.6939 5.51099 14.7841 5.53352C15.216 5.52159 15.5339 5.96434 15.481 6.37527C15.4823 9.15902 15.4823 11.9441 15.481 14.7278C15.5141 15.0619 15.3392 15.3893 15.0319 15.5312C14.7298 15.5935 14.4198 15.5736 14.1138 15.5762C9.96476 15.5696 5.81569 15.5815 1.66662 15.5696C1.20826 15.616 0.853231 15.1666 0.900922 14.7318C0.906221 11.9017 0.894298 9.07153 0.907545 6.24271C0.896948 5.83841 1.27317 5.48978 1.67589 5.52954C2.74628 5.51761 3.81666 5.53087 4.88705 5.51894C4.8897 4.84686 4.86585 4.17346 4.89765 3.50138ZM6.59066 3.86062C6.59331 4.41339 6.59198 4.96749 6.59596 5.52026C7.66502 5.52954 8.7354 5.52424 9.80579 5.52292C9.80579 4.96617 9.80844 4.40942 9.80976 3.85399C8.73673 3.86062 7.66369 3.84869 6.59066 3.86062Z" fill="white"/>
    <path d="M3.04168 20.6215C4.31343 20.188 5.81568 20.8521 6.36412 22.0743C6.83175 23.046 6.65953 24.2867 5.92828 25.0821C5.24207 25.8708 4.08557 26.1916 3.08805 25.8854C1.98189 25.5699 1.14334 24.4962 1.12611 23.3416C1.05988 22.1406 1.89579 20.9701 3.04168 20.6215Z" fill="white"/>
    <path d="M15.8823 20.6308C16.5063 20.4306 17.2031 20.4479 17.8085 20.705C18.753 21.0961 19.4445 22.0492 19.4922 23.0752C19.5545 23.9965 19.116 24.9376 18.3649 25.4758C17.6773 25.9782 16.754 26.132 15.9406 25.8801C14.7987 25.5448 13.9575 24.3968 13.9959 23.2051C13.9932 22.0598 14.7934 20.9768 15.8823 20.6308Z" fill="white"/>
</svg>
