<svg width="87" height="70" viewBox="0 0 87 70" fill="none" xmlns="http://www.w3.org/2000/svg">
    <path d="M67.6673 0.393381C75.087 -1.37714 83.2849 2.99985 85.9137 10.0862C88.7285 16.8982 85.8878 25.3692 79.5318 29.1632C75.6145 31.6196 70.5946 32.2369 66.1886 30.8008C61.9081 29.4504 58.289 26.2009 56.512 22.1111C54.549 17.7342 54.7824 12.4698 57.1043 8.27282C59.2619 4.29881 63.2182 1.3408 67.6673 0.393381ZM68.0997 3.81867C66.4264 4.23021 64.8353 4.98472 63.4776 6.03503C58.5614 9.63608 57.1562 16.9925 60.4077 22.1283C63.4171 27.3627 70.5513 29.6391 76.0771 27.1012C81.7802 24.7648 84.9452 17.8713 82.9476 12.0711C81.1619 6.02217 74.2438 2.1639 68.0997 3.81867Z" fill="#2DD792"/>
    <path d="M0.0129714 16.8124C-0.0907996 12.2639 4.04707 8.16132 8.63461 8.2642C22.4924 8.25992 36.3544 8.22991 50.2122 8.27706C52.3871 8.18704 52.3698 11.7709 50.1992 11.6638C36.3458 11.7281 22.4967 11.6552 8.64326 11.6981C7.44989 11.6295 6.39489 12.2168 5.38312 12.7569C17.4162 23.0885 29.4796 33.3858 41.5127 43.7131C46.6278 39.379 51.6823 34.972 56.806 30.6507C57.6621 29.7891 59.2965 30.2563 59.5991 31.4181C59.9753 32.3484 59.2014 33.15 58.5398 33.6945C53.2561 38.1829 48.02 42.7271 42.7277 47.2027C42.0748 47.8329 40.9895 47.8629 40.341 47.2198C28.0441 36.7425 15.8035 26.1966 3.51092 15.7107C3.40715 30.8051 3.4893 45.8952 3.46768 60.9896C3.36391 62.3314 3.86979 63.5918 4.61781 64.6849C12.4914 58.4946 20.3564 52.2956 28.2127 46.0838C29.0213 45.4708 29.765 44.7291 30.7032 44.3133C32.035 43.9103 33.3537 45.4536 32.7138 46.684C32.2209 47.4642 31.395 47.9486 30.6989 48.5317C23.0718 54.5291 15.4489 60.5352 7.83039 66.5498C27.1231 66.5669 46.4159 66.5498 65.7043 66.5583C69.3233 66.5198 72.9424 66.6355 76.5614 66.4897C68.0435 60.0807 59.4478 53.7746 50.9213 47.3828C49.8144 46.7097 49.9701 44.9135 51.1591 44.4247C51.9374 43.996 52.7589 44.459 53.3772 44.9349C62.0032 51.3353 70.6032 57.7744 79.2508 64.1448C79.7048 62.4128 79.5448 60.6123 79.5621 58.8418C79.5664 50.255 79.5491 41.6639 79.5707 33.0772C79.3762 31.9111 80.522 30.7751 81.7024 31.1094C82.5931 31.2981 83.1162 32.2155 83.0211 33.0814C83.0168 42.8171 83.0384 52.5485 83.0081 62.2842C83.0384 65.015 81.5813 67.8273 79.0562 69.0534C77.1105 70.1765 74.7843 69.9793 72.6267 69.9965C51.2975 69.9751 29.9639 70.0051 8.63461 69.9793C4.04707 70.0865 -0.082152 65.971 0.0129714 61.4311C-0.00432379 46.5597 -0.00432379 31.6839 0.0129714 16.8124Z" fill="#566488"/>
    <path d="M71.6798 9.43887C72.6873 8.58147 74.4125 9.47316 74.3476 10.7678C74.3692 14.6432 74.4514 18.5315 74.3044 22.4069C73.9931 24.0831 71.282 24.0789 70.9837 22.3984C70.8021 19.8519 70.9621 17.2883 70.9275 14.7376C70.1838 15.3077 69.3969 16.2937 68.3289 15.8993C67.1528 15.6035 66.6772 13.953 67.5809 13.1214C68.8996 11.8481 70.2616 10.6049 71.6798 9.43887Z" fill="#2DD792"/>
</svg>
