<svg width="27" height="35" viewBox="0 0 27 35" fill="none" xmlns="http://www.w3.org/2000/svg">
    <path d="M9.395 1.68314C10.6705 0.389606 12.586 -0.226365 14.3784 0.0756113C16.8242 0.433175 18.8719 2.53499 19.1679 4.98685C19.4128 6.64697 18.8539 8.3822 17.7376 9.62616C18.917 9.71029 20.0543 10.2346 20.8776 11.0865C22.5422 12.7255 24.2023 14.3691 25.87 16.0067C26.7458 16.7774 27.144 18.062 26.7774 19.1812C26.4183 20.3636 25.2059 21.1974 23.977 21.1478C23.2468 21.1358 22.5377 20.8263 22.0194 20.314C21.0819 19.3946 20.1655 18.4571 19.225 17.5421C19.2325 18.9904 19.2205 20.4402 19.2295 21.89C20.493 23.1294 21.7294 24.3929 22.9869 25.6384C24.2519 26.6675 24.3931 28.7528 23.2108 29.8991C21.9323 31.1821 20.6507 32.4606 19.3692 33.7407C18.8103 34.3116 18.0156 34.6451 17.2133 34.6105C16.1421 34.588 15.107 33.9089 14.6878 32.9174C14.2101 31.8417 14.4715 30.497 15.2963 29.6632C15.8837 29.0653 16.4787 28.4749 17.0721 27.8844C16.6529 27.4548 16.2142 27.0446 15.8041 26.6044C14.9237 26.9755 13.9742 27.2339 13.0112 27.1287C12.3456 27.0942 11.7282 26.8343 11.1152 26.6014C10.7006 27.0401 10.2634 27.4563 9.84421 27.8889C10.4391 28.4764 11.0371 29.0638 11.62 29.6632C12.2976 30.3528 12.6101 31.3819 12.4163 32.3314C12.251 33.2133 11.629 33.9855 10.8102 34.3476C9.76608 34.8449 8.43649 34.618 7.61469 33.8053C6.2851 32.4862 4.95851 31.1641 3.64394 29.83C2.64336 28.7949 2.63284 26.9935 3.62891 25.9539C4.97804 24.5672 6.37524 23.2301 7.71685 21.8374C7.73488 20.3981 7.7484 18.9589 7.73789 17.5196C6.78689 18.4451 5.85091 19.384 4.90142 20.3095C4.20282 21.0081 3.13163 21.3176 2.17312 21.0637C1.10043 20.8173 0.212529 19.8888 0.0442637 18.7966C-0.127006 17.8501 0.208022 16.839 0.888594 16.166C2.62082 14.4352 4.35155 12.703 6.08378 10.9723C6.90558 10.1625 8.02784 9.69527 9.17415 9.61865C8.26372 8.60305 7.71235 7.26294 7.69432 5.89578C7.65075 4.33783 8.28174 2.77537 9.395 1.68314ZM12.3351 2.09029C10.5623 2.59809 9.33941 4.5076 9.65791 6.33297C9.88778 8.16586 11.608 9.64569 13.4529 9.61114C15.3053 9.6502 17.0255 8.16286 17.2599 6.32696C17.4928 4.88018 16.7957 3.35678 15.5727 2.55902C14.6323 1.93554 13.4138 1.75676 12.3351 2.09029ZM7.3623 12.4131C5.65711 14.1167 3.95042 15.8189 2.24974 17.5271C1.88917 17.8651 1.79001 18.4901 2.12504 18.8792C2.45857 19.3119 3.16468 19.3405 3.53877 18.9438C4.98255 17.5436 6.40829 16.1239 7.84155 14.7117C8.02935 14.5284 8.22766 14.3301 8.49959 14.2835C9.06448 14.1438 9.67294 14.623 9.65641 15.209C9.67294 16.5476 9.65641 17.8877 9.66392 19.2278C12.2104 19.2308 14.7569 19.2293 17.3035 19.2278C17.3185 17.8336 17.2704 16.4364 17.3275 15.0437C17.4221 14.3166 18.4317 13.992 18.929 14.5314C20.4254 15.9902 21.8857 17.4865 23.3805 18.9483C23.7787 19.378 24.5629 19.2909 24.8544 18.7831C25.1113 18.388 24.9926 17.8381 24.6621 17.5226C22.9524 15.8279 21.2322 14.1438 19.5225 12.4491C18.9651 11.8722 18.1793 11.5191 17.3711 11.5372C14.7149 11.5372 12.0587 11.5357 9.40401 11.5387C8.63931 11.5387 7.89113 11.8647 7.3623 12.4131ZM9.64289 21.1538C9.63838 21.6646 9.62636 22.1754 9.62035 22.6862C10.4301 23.4119 11.0837 24.3403 12.0377 24.8887C13.202 25.5017 14.7329 25.2658 15.6554 24.3238C16.1962 23.7679 16.7806 23.2481 17.2899 22.6637C17.326 22.1604 17.2944 21.6571 17.3005 21.1538C14.7479 21.1508 12.1954 21.1523 9.64289 21.1538ZM8.2532 24.0369C7.19253 25.1035 6.11984 26.1582 5.06668 27.2324C4.71062 27.5764 4.72714 28.1939 5.06968 28.5395C6.2881 29.7774 7.52756 30.9958 8.74898 32.2308C8.93377 32.4156 9.13058 32.6109 9.398 32.6605C9.9659 32.8227 10.5924 32.3239 10.5563 31.732C10.5578 31.2287 10.1372 30.8967 9.81416 30.5722C9.1441 29.8886 8.45151 29.229 7.79047 28.538C7.44192 28.1999 7.43441 27.59 7.77545 27.2459C8.37189 26.6164 8.99988 26.0185 9.60984 25.4025C9.16213 24.9428 8.70691 24.4906 8.2532 24.0369ZM17.308 25.395C17.9149 26.017 18.5429 26.6164 19.1424 27.2459C19.5134 27.6185 19.4443 28.2675 19.0642 28.6086C18.3912 29.2891 17.7106 29.9637 17.0315 30.6383C16.7596 30.9147 16.4231 31.1866 16.384 31.6028C16.3089 32.0099 16.5373 32.4682 16.9369 32.6094C17.335 32.7791 17.8083 32.6319 18.0847 32.3119C19.3317 31.0484 20.6027 29.8075 21.8451 28.538C22.2267 28.1684 22.1771 27.5088 21.7865 27.1663C20.7529 26.1176 19.7012 25.084 18.6661 24.0369C18.2109 24.4876 17.7587 24.9398 17.308 25.395Z" fill="#24304F"/>
</svg>
