<svg width="13" height="14" viewBox="0 0 13 14" fill="none" xmlns="http://www.w3.org/2000/svg">
    <path d="M6.14372 0.0195294C6.93245 -0.0680228 7.75163 0.14058 8.39419 0.609555C9.2385 1.20719 9.76076 2.22965 9.74554 3.26429C9.74858 4.24031 9.27656 5.19957 8.50686 5.79797C7.82167 6.34613 6.9058 6.58594 6.03865 6.46033C5.08091 6.32862 4.20082 5.73935 3.70976 4.90646C3.23927 4.12991 3.12735 3.14933 3.39838 2.28371C3.75925 1.07244 4.88677 0.145148 6.14372 0.0195294Z" fill="white"/>
    <path d="M3.10743 7.87639C3.62208 7.76905 4.14968 7.79874 4.67043 7.79417C6.19155 7.79798 7.71267 7.78732 9.23304 7.7995C10.8128 7.82843 12.2913 8.93083 12.7838 10.4284C13.0762 11.2293 12.981 12.0918 12.997 12.9263C13.0336 13.2902 12.729 13.6457 12.359 13.6389C8.4778 13.6449 4.59582 13.6404 0.714589 13.6411C0.320224 13.683 -0.0360756 13.3229 0.00351325 12.9301C0.0202624 12.1444 -0.0703351 11.3358 0.167959 10.573C0.559279 9.22622 1.734 8.15275 3.10743 7.87639Z" fill="white"/>
</svg>
