<svg width="21" height="21" viewBox="0 0 21 21" fill="none" xmlns="http://www.w3.org/2000/svg">
    <path d="M9.42926 1.0615C11.4111 0.832147 13.4642 1.24781 15.1906 2.24911C16.9238 3.23409 18.3319 4.77649 19.1535 6.59279C20.0895 8.64067 20.258 11.0263 19.6271 13.1877C19.0392 15.2371 17.7269 17.066 15.9774 18.2841C14.1834 19.5489 11.941 20.1479 9.75585 19.969C7.69609 19.8138 5.70313 18.9491 4.17038 17.5678C2.5003 16.0773 1.37578 13.9849 1.08556 11.7633C0.802763 9.70433 1.22659 7.55772 2.27391 5.76221C3.74877 3.19029 6.47582 1.37696 9.42926 1.0615ZM10.2146 2.19344C7.95662 2.25802 5.7588 3.31202 4.27429 5.0103C3.00875 6.43024 2.25387 8.29627 2.19523 10.1987C2.1121 12.1746 2.78236 14.166 4.02861 15.6995C5.13902 17.0816 6.69776 18.1029 8.41608 18.5438C10.2361 19.0211 12.2172 18.8541 13.9333 18.0829C15.6271 17.328 17.0478 15.9808 17.8902 14.3286C18.824 12.5242 19.063 10.3731 18.5427 8.40835C18.0172 6.36566 16.6707 4.5553 14.8796 3.44414C13.4968 2.57125 11.8475 2.13481 10.2146 2.19344Z" fill="#566488" stroke="#566488" stroke-width="0.5"/>
    <path d="M9.90727 5.44668C9.89168 5.14978 10.1292 4.87217 10.4306 4.86252C10.7705 4.80685 11.1134 5.08817 11.0926 5.44C11.0978 7.02694 11.0919 8.61462 11.0949 10.2016C12.7538 10.2053 14.4128 10.2008 16.0717 10.2038C16.2677 10.1941 16.4822 10.2439 16.6069 10.4072C16.8897 10.7434 16.687 11.3751 16.215 11.384C14.3838 11.4003 12.5519 11.3855 10.72 11.3914C10.5144 11.3907 10.2828 11.4062 10.1144 11.266C9.94661 11.1398 9.89836 10.9178 9.90578 10.7189C9.90727 8.962 9.9043 7.20434 9.90727 5.44668Z" fill="#566488" stroke="#566488" stroke-width="0.5"/>
</svg>
