<svg width="26" height="27" viewBox="0 0 26 27" fill="none" xmlns="http://www.w3.org/2000/svg">
    <path d="M0.00210531 2.91262C-0.0356182 1.35987 1.36015 -0.0346813 2.9129 0.00182533C9.40864 -0.000608443 15.9044 -0.000608443 22.4001 0.00182533C23.9103 -0.0322475 25.2781 1.28199 25.306 2.79093C25.3182 8.02841 25.3109 13.2659 25.3109 18.5034C25.3438 20.0111 24.032 21.3874 22.5218 21.4117C17.2454 21.4263 11.9702 21.4142 6.69377 21.4178C6.29828 21.4239 5.90036 21.3947 5.50608 21.4385C5.10573 21.4945 4.85383 21.8425 4.58003 22.1029C3.05649 23.6265 1.53782 25.1573 0.00453913 26.6723C-0.00397907 18.7528 0.00210531 10.8321 0.00210531 2.91262ZM1.94791 3.03309C1.95156 9.34265 1.94061 15.6534 1.95399 21.963C2.56122 21.4166 3.1076 20.8082 3.70144 20.2484C4.23809 19.7385 4.97795 19.4647 5.71417 19.4708C11.2364 19.4708 16.7586 19.4708 22.2797 19.4708C22.8309 19.528 23.3724 19.0692 23.3615 18.5058C23.3712 13.3486 23.3615 8.19147 23.3651 3.03309C23.4418 2.36867 22.7944 1.83567 22.1543 1.94519C15.7401 1.95371 9.32589 1.94033 2.9129 1.95249C2.34705 1.93546 1.88828 2.48062 1.94791 3.03309Z" fill="#24304F"/>
    <path d="M6.81445 7.78741C10.7097 7.78985 14.6037 7.78985 18.499 7.78741C18.4966 8.43723 18.4966 9.08705 18.499 9.73687C14.6037 9.73443 10.7097 9.73443 6.81445 9.73687C6.81689 9.08705 6.81689 8.43723 6.81445 7.78741Z" fill="#24304F"/>
    <path d="M6.81445 11.6815C9.08638 11.684 11.3595 11.684 13.6315 11.6815C13.629 12.3313 13.629 12.9812 13.6315 13.631C11.3595 13.6285 9.08638 13.6285 6.81445 13.631C6.81689 12.9812 6.81689 12.3313 6.81445 11.6815Z" fill="#24304F"/>
</svg>
