<svg width="121" height="97" viewBox="0 0 121 97" fill="none" xmlns="http://www.w3.org/2000/svg">
    <path d="M82.46 95.6203C81.44 95.9103 79.79 97.0603 79.27 95.4403C75.76 88.8103 72.1 82.2603 68.7 75.5803C74.33 72.9303 79.88 69.9203 84.62 65.8403C89.69 61.1503 92.63 54.5003 93.63 47.7303C85.33 47.3403 77.01 47.7103 68.7 47.5803C68.53 31.7203 68.71 15.8603 68.62 0.0102615C85.92 0.100262 103.22 0.0502582 120.52 0.0302582C120.43 14.1503 120.52 28.2603 120.44 42.3803C120.13 54.2903 117.47 66.6703 110.02 76.2503C102.95 85.2303 92.8 91.1503 82.46 95.6203Z" fill="#E0EAFF"/>
    <path d="M37.45 80.7105C30.02 87.7905 20.86 92.8105 11.44 96.7305C7.61999 89.7405 3.84999 82.7105 0.149994 75.6505C6.38999 72.4605 12.96 69.2805 17.78 64.0605C21.76 59.4705 24.41 53.6805 24.95 47.6105C16.63 47.5505 8.32 47.5905 0 47.5805C0.15 31.7405 0.109999 15.8905 0.0299988 0.0404663C17.3 0.0304663 34.56 0.110473 51.82 0.000473022C52.04 10.4705 51.83 20.9405 51.93 31.4005C51.9 40.3905 52.15 49.5305 49.86 58.2905C47.81 66.6905 43.63 74.6305 37.45 80.7105Z" fill="#E0EAFF"/>
</svg>
