<svg width="14" height="12" viewBox="0 0 14 12" fill="none" xmlns="http://www.w3.org/2000/svg">
    <path d="M4.57452 1.2107C4.78833 0.547192 5.44517 0.0432782 6.1637 0.00864257C6.69717 -0.0069774 7.23134 0.00320956 7.76551 0.00388868C8.47423 0.0147548 9.14299 0.475204 9.39114 1.11766C9.54537 1.47964 9.50961 1.87829 9.51242 2.26064C11.0077 2.26064 12.5036 2.26267 13.9989 2.25928C13.9982 2.93976 14.0003 3.62025 13.9989 4.30006C14.0241 5.01247 13.5516 5.70993 12.8632 5.96393C12.5828 6.0787 12.2744 6.09296 11.9744 6.08753C8.65649 6.08617 5.33792 6.08617 2.02005 6.08753C1.68777 6.09772 1.34638 6.06919 1.04495 5.92522C0.430864 5.65492 0.00254887 5.02809 0.00324988 4.37205C-0.00235818 3.66779 0.00254889 2.96421 0.00114688 2.25996C1.4964 2.26267 2.99235 2.25996 4.4876 2.26131C4.4918 1.9102 4.45605 1.54891 4.57452 1.2107ZM5.75922 1.62429C5.72908 1.83482 5.74871 2.04943 5.7452 2.26131C6.58151 2.25996 7.41851 2.26131 8.25551 2.26064C8.25411 2.06097 8.26813 1.86063 8.2464 1.66164C8.21275 1.41037 7.96249 1.21274 7.70242 1.22089C7.23484 1.21749 6.76657 1.21885 6.299 1.22157C6.04944 1.2107 5.8146 1.38999 5.75922 1.62429Z" fill="white"/>
    <path d="M0.00116096 6.28711C0.479248 6.69595 1.10315 6.9479 1.74387 6.95401C3.0176 6.95877 4.29133 6.95334 5.56436 6.95605C5.56436 7.53535 5.56436 8.11465 5.56366 8.69394C6.52123 8.69394 7.47881 8.6953 8.43639 8.69394C8.43569 8.11465 8.43568 7.53535 8.43568 6.95673C9.70942 6.95334 10.9824 6.95877 12.2562 6.95401C12.8976 6.94722 13.5222 6.69798 13.9996 6.28711C13.9947 7.64265 14.0066 8.99819 13.994 10.3531C13.9652 11.2291 13.157 11.9904 12.2527 11.9972C8.77217 12.002 5.29167 11.9993 1.81116 11.9979C0.884431 12.0237 0.0320053 11.2515 0.00606799 10.3524C-0.00584914 8.99751 0.00396499 7.64197 0.00116096 6.28711Z" fill="white"/>
</svg>
