<svg width="13" height="13" viewBox="0 0 13 13" fill="none" xmlns="http://www.w3.org/2000/svg">
    <path d="M0.263914 0.0109019C1.8999 -0.0118555 3.53715 0.00963761 5.17313 0.000155364C5.32662 0.00710901 5.51423 -0.027027 5.62919 0.101931C5.73341 0.203708 5.71699 0.358584 5.72078 0.491336C5.71383 2.78667 5.7233 5.08264 5.71572 7.3786C5.72204 7.55877 5.54328 7.6991 5.37021 7.6833C3.68495 7.6833 1.99907 7.68709 0.313815 7.6814C0.127477 7.68709 -0.0165401 7.5044 0.00240952 7.32424C0.00177786 5.00425 0.00177786 2.68426 0.00240952 0.364273C-0.0133818 0.202443 0.0977893 0.032395 0.263914 0.0109019Z" fill="white"/>
    <path d="M7.52811 0.015492C9.22789 -0.0072654 10.9296 0.0129634 12.63 0.0053776C12.8346 -0.0255977 13.021 0.158358 12.9976 0.363174C12.9982 1.37714 13.0008 2.39048 12.9963 3.40445C13.0083 3.60104 12.8188 3.75845 12.6281 3.73443C10.9637 3.73569 9.29864 3.73759 7.6336 3.7338C7.44915 3.75213 7.2704 3.59283 7.28366 3.40445C7.27987 2.39174 7.2824 1.37904 7.2824 0.366335C7.26787 0.210194 7.3683 0.0445709 7.52811 0.015492Z" fill="white"/>
    <path d="M7.52872 5.32544C9.22724 5.30269 10.9283 5.32291 12.6274 5.31533C12.834 5.28246 13.0203 5.46768 12.9982 5.67376C12.9988 7.99501 12.9988 10.3163 12.9976 12.6375C13.0216 12.843 12.8352 13.0219 12.6325 12.9978C10.9662 12.9985 9.29988 12.9997 7.63421 12.9972C7.43397 13.0162 7.259 12.8341 7.28238 12.635C7.28174 10.3156 7.28238 7.99627 7.28238 5.67692C7.26848 5.52014 7.36828 5.35389 7.52872 5.32544Z" fill="white"/>
    <path d="M0.193943 9.29226C0.289955 9.25433 0.396073 9.26761 0.497137 9.26318C2.11859 9.26698 3.74068 9.26255 5.36277 9.26571C5.5529 9.24485 5.73103 9.40984 5.71713 9.60265C5.71902 10.6318 5.72155 11.6616 5.71587 12.6913C5.71966 12.8728 5.53837 13.0106 5.36467 12.9941C3.68131 12.9929 1.99795 12.9973 0.315221 12.9916C0.128883 12.9986 -0.0170292 12.8152 0.00255204 12.6357C0.00128873 11.6432 0.00318368 10.6508 0.00192037 9.65764C-0.011976 9.51099 0.0492944 9.34916 0.193943 9.29226Z" fill="white"/>
</svg>
