<svg width="282" height="276" viewBox="0 0 282 276" fill="none" xmlns="http://www.w3.org/2000/svg">
    <path opacity="0.5" d="M149.365 0.480312C149.365 0.480312 298.146 -9.11433 279.777 130.427C261.408 269.963 162.223 217.636 130.996 206.303C99.769 194.963 29.0553 236.825 7.9312 184.499C-13.1929 132.172 -0.334764 -3.87922 149.365 0.480312Z" fill="#C0D5FF"/>
    <path opacity="0.2" d="M141.416 275.308C214.121 275.308 273.059 271.333 273.059 266.43C273.059 261.527 214.121 257.552 141.416 257.552C68.712 257.552 9.77344 261.527 9.77344 266.43C9.77344 271.333 68.712 275.308 141.416 275.308Z" fill="#051F38"/>
    <path d="M254.075 215.303C254.075 215.303 236.931 264.287 235.094 264.287C233.257 264.287 196.52 275.92 228.971 261.225C228.971 261.225 232.645 207.956 238.156 205.507C243.666 203.058 254.075 215.303 254.075 215.303Z" fill="#FFB39F"/>
    <path d="M241.218 250.584C246.796 236.091 254.076 215.303 254.076 215.303C254.076 215.303 243.667 203.058 238.156 205.507C234.587 207.093 231.789 230.005 230.258 245.949C233.944 247.418 237.581 249.004 241.218 250.584Z" fill="#E09B8D"/>
    <path d="M223.664 263.883C223.664 263.883 222.237 267.146 235.707 263.681L235.095 265.518C235.095 265.511 197.133 274.494 223.664 263.883Z" fill="#08325B"/>
    <path d="M243.71 194.577C243.71 194.577 270.228 239.189 269.046 240.597C267.865 242.006 253.176 277.629 262.764 243.322C262.764 243.322 224.306 206.278 225.972 200.48C227.637 194.688 243.71 194.577 243.71 194.577Z" fill="#FFB39F"/>
    <path d="M261.393 249.096C261.393 249.096 262.979 252.286 268.973 239.74L269.99 241.387C269.984 241.387 252.472 276.245 261.393 249.096Z" fill="#08325B"/>
    <path d="M259.139 221.133C252.03 208.574 243.715 194.583 243.715 194.583C243.715 194.583 227.643 194.688 225.977 200.486C224.9 204.239 240.654 221.108 251.89 232.521C251.89 232.521 256.255 227.702 259.139 221.133Z" fill="#E09B8D"/>
    <path d="M260.506 127.439C260.506 127.439 244.28 109.377 234.789 120.704C225.299 132.032 210.604 169.381 212.747 184.689C214.008 193.689 222.666 203.315 229.597 209.725L223.768 242.55C223.768 242.55 247.647 248.98 246.117 248.98C245.198 248.98 269.69 183.158 272.139 162.34C274.588 141.522 260.506 127.439 260.506 127.439Z" fill="#0A3B77"/>
    <path opacity="0.2" d="M248.095 131.536C252.65 131.481 257.585 130.844 261.939 129.056C261.069 128.003 260.506 127.439 260.506 127.439C260.506 127.439 244.28 109.377 234.79 120.704C233.326 122.449 231.734 124.819 230.105 127.629C235.518 130.574 242.211 131.609 248.095 131.536Z" fill="#352C38"/>
    <path opacity="0.2" d="M223.787 140.279C217.04 155.629 211.364 174.776 212.748 184.689C213.997 193.628 222.55 203.186 229.457 209.597C231.906 192.93 236.388 169.804 239.058 156.462C232.427 152.635 226.916 147.192 223.787 140.279Z" fill="#352C38"/>
    <path d="M213.664 91.3145L203.867 110.296C203.867 110.296 186.723 100.805 184.274 100.805C181.824 100.805 170.191 101.111 175.701 103.56C175.701 103.56 173.252 105.091 176.008 105.703C176.008 105.703 173.558 107.846 176.62 108.153L183.661 107.846C183.661 107.846 197.744 120.705 204.785 122.541C211.827 124.378 223.154 100.499 223.154 100.499L213.664 91.3145Z" fill="#FFB39F"/>
    <path d="M215.262 104.95C216.823 105.507 218.385 106.077 219.965 106.603C221.893 103.144 223.148 100.505 223.148 100.505L213.658 91.3203L208.288 101.717C210.468 103.058 212.85 104.081 215.262 104.95Z" fill="#E09B8D"/>
    <path d="M225.91 82.1298C225.91 82.1298 216.726 80.599 213.358 85.4974C209.991 90.3957 208.46 98.3555 208.46 98.3555L221.624 104.785L225.91 82.1298Z" fill="#2DD792"/>
    <path opacity="0.1" d="M220.878 99.5128C217.534 96.9044 213.671 93.5491 211.148 89.6243C209.311 93.9164 208.454 98.3617 208.454 98.3617L221.618 104.791L222.402 100.639C221.888 100.266 221.373 99.8986 220.878 99.5128Z" fill="#08325B"/>
    <path d="M167.33 92.5569L144.699 100.725C140.732 102.158 138.674 106.536 140.107 110.503L147.112 129.901C148.545 133.868 152.923 135.926 156.89 134.493L179.521 126.325C183.488 124.892 185.545 120.514 184.113 116.547L177.108 97.1491C175.675 93.1753 171.297 91.1241 167.33 92.5569ZM181.921 118.347C182.496 119.932 181.67 121.684 180.084 122.259L170.361 95.3183C171.946 94.7428 173.698 95.5693 174.273 97.1552L181.921 118.347Z" fill="white"/>
    <path d="M174.489 102.047C174.489 102.047 178.377 100.706 178.99 101.466C179.608 102.231 175.757 103.315 175.904 103.388C176.051 103.462 180.079 102.556 180.441 103.388C180.802 104.221 176.155 105.746 176.155 105.746C176.155 105.746 180.551 104.546 180.839 105.458C181.127 106.364 176.265 107.711 176.265 107.711L176.002 105.703L175.72 103.352L174.489 102.047Z" fill="#FFB39F"/>
    <path d="M179.938 101.031C179.938 101.031 176.963 99.0349 176.926 98.3063C176.889 97.5776 184.88 100.957 184.88 100.957L179.938 101.031Z" fill="#FFB39F"/>
    <path d="M239.08 80.6173C238.486 81.7316 241.474 56.0337 241.474 56.0337L227.594 65.3957C227.594 65.3957 228.8 81.7929 227.288 81.8663C226.663 81.8969 224.263 82.7542 221.648 83.7583C222.267 86.8198 223.461 87.4811 224.496 90.4078C232.296 90.365 240.697 90.1874 245.485 83.0297C242.773 82.2215 239.883 79.111 239.08 80.6173Z" fill="#E09B8D"/>
    <path d="M225.909 82.1298L225.296 79.9868L240.604 76.6191L241.216 80.2929C241.216 80.2929 259.585 86.4158 262.034 100.192C264.483 113.969 263.259 122.847 260.503 127.439C260.503 127.439 239.073 130.501 229.889 125.909C220.704 121.317 211.214 87.0281 216.112 83.9667C221.01 80.9052 225.909 82.1298 225.909 82.1298Z" fill="#2DD792"/>
    <path opacity="0.1" d="M245.944 120.3C238.609 119.865 229.602 118.996 223.491 114.453C222.352 113.601 221.281 112.659 220.289 111.636C223.032 118.408 226.479 124.206 229.89 125.909C239.074 130.501 260.504 127.439 260.504 127.439C261.723 125.406 262.641 122.523 263.076 118.751C257.596 120.429 251.828 120.649 245.944 120.3Z" fill="#08325B"/>
    <path d="M245.197 109.683L260.811 108.458C260.811 108.458 256.831 136.011 252.239 145.502C247.646 154.993 226.522 192.342 234.788 171.524C234.788 171.524 224.073 187.75 233.258 171.218C233.258 171.218 223.155 184.383 232.033 170.3C232.033 170.3 221.624 182.24 232.645 165.402C232.645 165.402 224.379 169.381 233.564 162.646L242.442 139.379L245.197 109.683Z" fill="#FFB39F"/>
    <path d="M260.467 110.718C260.688 109.297 260.81 108.465 260.81 108.465L245.197 109.689L245.05 111.269C250.187 111.244 255.33 111.03 260.467 110.718Z" fill="#E09B8D"/>
    <path d="M228.875 39.6119C228.875 39.6119 236.675 35.0625 248.058 42.5386C255.614 47.5043 255.21 63.3444 238.953 73.7472C219.568 86.1584 228.875 39.6119 228.875 39.6119Z" fill="#08325B"/>
    <path d="M239.651 48.0612C239.651 48.0612 230.889 41.2403 223.444 44.6018C213.99 48.8695 214.982 58.8437 214.792 67.3852C214.541 78.6881 223.481 80.8373 226.175 80.9781C230.185 81.1863 246.374 80.225 239.651 48.0612Z" fill="#FFB39F"/>
    <path d="M240.491 58.6601C240.491 58.6601 240.859 56.9212 243.804 58.3111C247.539 60.0745 245.518 69.0201 241.324 68.7936C237.124 68.567 240.491 58.6601 240.491 58.6601Z" fill="#FFB39F"/>
    <path d="M240.49 58.6597C240.49 58.6597 240.999 64.7765 239.56 64.8684C238.121 64.9602 236.559 53.7798 240.607 53.8165C244.66 53.8471 240.49 58.6597 240.49 58.6597Z" fill="#08325B"/>
    <path d="M240.49 58.6599C240.49 58.6599 237.465 45.0486 219.678 47.3018C219.678 47.3018 222.255 42.2259 227.889 39.8563C235.567 36.6234 246.998 49.6592 243.796 58.3109C243.796 58.3109 242.369 58.4639 240.49 58.6599Z" fill="#2DD792"/>
    <path d="M248.057 46.114C248.057 46.114 247.084 29.8576 250.984 29.8576C254.884 29.8576 250.659 43.5117 250.659 43.5117C250.659 43.5117 253.911 24.0041 263.34 26.9308C272.769 29.8576 256.513 43.5117 256.513 43.5117C256.513 43.5117 263.989 36.6846 266.591 38.9624C269.194 41.2401 255.864 45.7894 255.864 45.7894C255.864 45.7894 265.942 42.8627 267.24 47.7427C268.538 52.6165 247.733 51.9675 248.057 46.114Z" fill="#08325B"/>
    <path d="M215.3 55.5374C215.3 55.5374 215.324 55.3904 215.422 55.1639C215.514 54.9312 215.692 54.625 215.967 54.2944C216.243 53.9699 216.647 53.6454 217.155 53.3943C217.284 53.3331 217.424 53.2903 217.565 53.2413C217.706 53.1862 217.853 53.1494 218.006 53.1311C218.159 53.1127 218.312 53.0759 218.471 53.0698L218.949 53.0882C219.274 53.1004 219.574 53.2168 219.874 53.3025C220.155 53.425 220.419 53.578 220.651 53.7311C220.866 53.9087 221.068 54.0924 221.239 54.2699C221.398 54.4659 221.521 54.6618 221.637 54.8394C221.692 54.9312 221.747 55.0169 221.79 55.1026C221.827 55.1945 221.857 55.2802 221.888 55.3598C221.949 55.519 221.992 55.6659 222.023 55.7823C222.09 56.0211 222.102 56.1619 222.102 56.1619C222.102 56.1619 221.955 56.1129 221.741 56.015C221.631 55.966 221.502 55.9047 221.368 55.8313C221.233 55.7517 221.074 55.6782 220.902 55.6108C220.737 55.5374 220.566 55.4516 220.394 55.3659C220.21 55.3047 220.027 55.2373 219.855 55.1516C219.672 55.0965 219.488 55.0537 219.31 54.9924C219.127 54.9863 218.955 54.9006 218.772 54.9128L218.502 54.8822C218.41 54.8883 218.318 54.8883 218.227 54.8883C218.043 54.8761 217.853 54.9251 217.663 54.9312C217.48 54.9741 217.284 54.9863 217.1 55.0414C216.91 55.0781 216.733 55.1271 216.555 55.1761C216.206 55.268 215.894 55.3598 215.673 55.4333C215.435 55.5006 215.3 55.5374 215.3 55.5374Z" fill="#08325B"/>
    <path d="M219.99 72.3752C219.99 72.3752 230.032 72.6691 230.681 72.5589C231.33 72.4487 225.097 77.3409 219.99 72.3752Z" fill="white"/>
    <path d="M220.676 61.1704C220.676 61.1704 220.658 61.3051 220.627 61.5439C220.584 61.7765 220.517 62.1194 220.388 62.5113C220.309 62.7072 220.247 62.9276 220.131 63.1358C220.076 63.246 220.021 63.3562 219.953 63.4665C219.874 63.5705 219.8 63.6808 219.721 63.7971C219.537 63.9991 219.335 64.2257 219.047 64.3604C218.968 64.3971 218.931 64.44 218.821 64.4706L218.631 64.5318C218.521 64.5808 218.331 64.5931 218.166 64.6114C217.835 64.6114 217.486 64.5257 217.229 64.3114C216.959 64.1216 216.794 63.8522 216.678 63.6012C216.549 63.3501 216.488 63.093 216.439 62.8542C216.39 62.6154 216.372 62.3827 216.365 62.1745C216.353 61.752 216.396 61.4091 216.445 61.1704C216.494 60.9316 216.537 60.803 216.537 60.803C216.537 60.803 216.537 61.3602 216.702 62.1317C216.788 62.5174 216.91 62.9582 217.137 63.3562C217.247 63.5583 217.394 63.7236 217.566 63.8461C217.725 63.9808 217.939 64.0114 218.141 64.0114C218.239 63.9992 218.325 64.0175 218.472 63.9624L218.668 63.9073C218.686 63.9073 218.753 63.8583 218.796 63.8399C218.998 63.7542 219.176 63.6012 219.335 63.442C219.488 63.2705 219.635 63.093 219.758 62.9031C219.886 62.7256 219.984 62.5296 220.088 62.3643C220.272 62.0092 220.425 61.7092 220.523 61.4949C220.615 61.2989 220.676 61.1704 220.676 61.1704Z" fill="#08325B"/>
    <path d="M230.778 61.9538C230.778 61.9538 230.759 62.0885 230.729 62.3273C230.686 62.56 230.618 62.9029 230.49 63.2947C230.41 63.4907 230.349 63.7111 230.233 63.9193C230.177 64.0295 230.122 64.1397 230.055 64.2499C229.975 64.354 229.902 64.4642 229.822 64.5805C229.639 64.7826 229.437 65.0091 229.149 65.1438C229.069 65.1806 229.032 65.2235 228.922 65.2541L228.732 65.3153C228.622 65.3643 228.432 65.3765 228.267 65.3949C227.936 65.3949 227.587 65.3092 227.33 65.0949C227.061 64.9051 226.896 64.6356 226.779 64.3846C226.651 64.1336 226.589 63.8764 226.54 63.6376C226.491 63.3988 226.473 63.1661 226.467 62.958C226.455 62.5355 226.498 62.1926 226.547 61.9538C226.596 61.715 226.638 61.5864 226.638 61.5864C226.638 61.5864 226.638 62.1436 226.804 62.9151C226.889 63.3008 227.012 63.7417 227.238 64.1397C227.349 64.3417 227.496 64.5071 227.667 64.6295C227.826 64.7642 228.041 64.7948 228.243 64.7948C228.341 64.7826 228.426 64.801 228.573 64.7459L228.769 64.6908C228.788 64.6908 228.855 64.6418 228.898 64.6234C229.1 64.5377 229.277 64.3846 229.437 64.2254C229.59 64.054 229.737 63.8764 229.859 63.6866C229.988 63.509 230.086 63.3131 230.19 63.1478C230.373 62.7926 230.526 62.4926 230.624 62.2783C230.722 62.0763 230.778 61.9538 230.778 61.9538Z" fill="#08325B"/>
    <path d="M241.898 67.0546C242.064 66.8341 242.223 66.6076 242.345 66.3688C242.474 66.13 242.56 65.8728 242.59 65.6341C242.603 65.5116 242.603 65.3953 242.56 65.2912C242.554 65.2361 242.523 65.1871 242.492 65.1442C242.468 65.0952 242.443 65.0524 242.401 65.0156C242.358 64.9789 242.333 64.9299 242.278 64.9054L242.131 64.8136C242.088 64.7768 242.021 64.7646 241.966 64.7401L241.794 64.6666L241.672 64.6115L241.641 64.4891C241.482 63.8462 241.372 63.2032 241.317 62.542C241.286 62.2113 241.28 61.8807 241.298 61.5378C241.317 61.201 241.354 60.852 241.494 60.503C241.562 60.3316 241.666 60.1479 241.831 60.0071C241.996 59.8601 242.235 59.7867 242.443 59.805C242.664 59.8234 242.799 59.8785 242.964 59.9275C243.141 59.9887 243.301 60.0744 243.448 60.1724C243.595 60.2765 243.723 60.3928 243.833 60.5337C243.937 60.6745 244.029 60.8275 244.09 60.9867C244.219 61.3051 244.262 61.6419 244.219 61.9664C244.176 61.648 244.072 61.3358 243.907 61.0786C243.827 60.9439 243.723 60.8337 243.619 60.7357C243.509 60.6316 243.386 60.552 243.258 60.4847C243.123 60.4234 242.988 60.3745 242.854 60.3377C242.707 60.3071 242.529 60.2642 242.425 60.2765C242.198 60.2887 242.064 60.4357 241.972 60.7051C241.807 61.2378 241.831 61.8868 241.868 62.5114C241.917 63.1359 242.003 63.7727 242.107 64.3972L241.954 64.2197L242.162 64.3237C242.229 64.3666 242.296 64.385 242.364 64.4401L242.554 64.587C242.615 64.636 242.664 64.7095 242.719 64.7707C242.774 64.8319 242.811 64.9054 242.848 64.985C242.884 65.0585 242.915 65.1381 242.921 65.2238C242.952 65.3891 242.933 65.5545 242.897 65.7014C242.823 66.0014 242.664 66.2525 242.492 66.4729C242.321 66.6872 242.119 66.8892 241.898 67.0546Z" fill="#E09B8D"/>
    <path d="M221.587 69.6141C221.3 69.6753 221.043 69.6753 220.804 69.6508C220.559 69.6263 220.332 69.5773 220.106 69.5039C219.885 69.4365 219.671 69.3447 219.475 69.2283C219.377 69.1732 219.273 69.1181 219.181 69.0446C219.089 68.9712 218.991 68.9099 218.9 68.8303L218.557 68.5181L218.648 68.2487C219.249 66.4975 219.855 64.7525 220.479 63.0136C221.116 61.2746 221.747 59.5357 222.439 57.8152C222.016 59.6215 221.545 61.4094 221.067 63.1972C220.583 64.9851 220.087 66.7608 219.573 68.5364L219.322 67.9548C219.438 67.9731 219.549 68.016 219.659 68.0466C219.775 68.0772 219.879 68.1201 219.983 68.1629C220.198 68.2548 220.394 68.365 220.583 68.4997C220.773 68.6344 220.957 68.7814 221.122 68.9589C221.306 69.1487 221.465 69.3508 221.587 69.6141Z" fill="#E09B8D"/>
    <path d="M225.201 54.8085C225.201 54.8085 225.275 54.6493 225.464 54.4166C225.556 54.2942 225.679 54.1595 225.826 54.0186C225.979 53.8839 226.15 53.7125 226.365 53.5717C226.573 53.4186 226.818 53.2716 227.087 53.1431C227.35 53.0022 227.656 52.9043 227.975 52.8002C228.299 52.7328 228.636 52.6349 228.991 52.6287C229.169 52.6226 229.346 52.6042 229.53 52.6042L230.069 52.6532C230.43 52.6777 230.779 52.8063 231.116 52.9043C231.453 53.0145 231.759 53.192 232.053 53.3451C232.334 53.5227 232.579 53.7247 232.818 53.9084C233.051 54.0921 233.222 54.3309 233.388 54.5207C233.553 54.7167 233.694 54.9003 233.786 55.0902C233.89 55.2677 233.969 55.433 234.03 55.5677C234.159 55.8372 234.208 55.9964 234.208 55.9964C234.208 55.9964 234.037 55.9412 233.773 55.8188C233.645 55.7576 233.479 55.6902 233.314 55.6045C233.149 55.5126 232.941 55.4392 232.732 55.3534C232.518 55.2738 232.316 55.1453 232.077 55.0718C231.851 54.9861 231.612 54.9003 231.361 54.8085C231.11 54.7534 230.859 54.6615 230.602 54.6003C230.338 54.5697 230.087 54.4656 229.824 54.4656L229.432 54.4105L229.034 54.3921C228.771 54.3615 228.508 54.3983 228.244 54.386C227.987 54.4105 227.724 54.4044 227.485 54.4411C227.24 54.4656 227.001 54.4901 226.775 54.5268C226.328 54.5881 225.936 54.6554 225.654 54.7105C225.366 54.7779 225.201 54.8085 225.201 54.8085Z" fill="#08325B"/>
    <path d="M216.776 264.176C216.8 266.399 215.019 268.224 212.796 268.254C210.573 268.279 208.749 266.497 208.718 264.274L208.559 251.294C208.534 249.071 210.316 247.246 212.539 247.216C214.761 247.191 216.586 248.973 216.617 251.196L216.776 264.176Z" fill="#08325B"/>
    <path d="M160.384 264.862C160.409 267.085 158.627 268.91 156.404 268.94C154.182 268.965 152.357 267.183 152.326 264.96L152.167 251.98C152.143 249.757 153.925 247.932 156.147 247.902C158.37 247.877 160.194 249.659 160.225 251.882L160.384 264.862Z" fill="#08325B"/>
    <path d="M212.202 254.973C212.263 259.994 208.247 264.109 203.226 264.17L165.515 264.629C160.494 264.691 156.38 260.674 156.318 255.653L152.253 169.816C152.191 164.795 156.208 160.68 161.229 160.619L204.983 160.086C210.004 160.025 214.119 164.042 214.18 169.063L212.202 254.973Z" fill="#4E7FF1"/>
    <path opacity="0.1" d="M213.977 177.604L214.173 169.069C214.112 164.048 209.991 160.032 204.977 160.093L161.222 160.625C156.201 160.687 152.185 164.801 152.246 169.822L152.65 178.351L213.977 177.604Z" fill="#08325B"/>
    <path d="M221.453 166.938C221.472 168.328 220.357 169.467 218.967 169.485L147.476 170.355C146.086 170.373 144.947 169.259 144.929 167.869L144.819 158.807C144.8 157.417 145.915 156.278 147.304 156.26L218.796 155.39C220.186 155.372 221.325 156.486 221.343 157.876L221.453 166.938Z" fill="#4E7FF1"/>
    <path d="M183.523 192.109L191.82 187.125L189.806 192.336L183.523 192.109Z" fill="white"/>
    <path d="M180.377 184.217C180.377 184.217 181.05 184.211 182.104 185.784C183.157 187.358 185.465 191.656 185.465 191.656L189.708 189.776L190.663 188.117C190.663 188.117 188.851 184.419 187.382 184.192L180.377 184.217Z" fill="white"/>
    <path d="M178.074 185.344C178.074 185.344 179.336 183.923 180.383 184.646C181.43 185.362 183.236 188.454 183.236 188.454L180.254 193.732L174.854 190.75L178.074 185.344Z" fill="white"/>
    <path d="M187.294 198.679L187.741 208.341L184.11 204.104L187.294 198.679Z" fill="white"/>
    <path d="M195.731 199.653C195.731 199.653 195.418 200.247 193.532 200.43C191.647 200.614 186.767 200.602 186.767 200.602L186.405 205.231L187.409 206.86C187.409 206.86 191.524 207.019 192.418 205.837L195.731 199.653Z" fill="white"/>
    <path d="M195.835 197.093C195.835 197.093 196.484 198.881 195.357 199.457C194.231 200.038 190.655 200.161 190.655 200.161L187.422 195.03L192.614 191.693L195.835 197.093Z" fill="white"/>
    <path d="M179.976 198.538L171.41 194.05L176.902 193.058L179.976 198.538Z" fill="white"/>
    <path d="M174.876 205.335C174.876 205.335 174.521 204.766 175.311 203.045C176.107 201.324 178.575 197.112 178.575 197.112L174.76 194.467L172.85 194.516C172.85 194.516 170.633 197.987 171.209 199.359L174.876 205.335Z" fill="white"/>
    <path d="M177.037 206.713C177.037 206.713 175.17 206.37 175.237 205.102C175.304 203.835 177.007 200.688 177.007 200.688L183.068 200.486L183.332 206.651L177.037 206.713Z" fill="white"/>
    <path d="M52.1243 239.954C52.1243 239.954 50.7833 261.581 49.5955 261.997C45.1196 263.552 11.3945 272.124 43.3011 257.735L42.4317 241.993L52.1243 239.954Z" fill="#08325B"/>
    <path d="M50.7096 256.713C51.4933 250.192 52.124 239.954 52.124 239.954L42.4375 241.993L43.209 256.009C45.6092 256.676 48.3951 256.694 50.7096 256.713Z" fill="#08325B"/>
    <path d="M29.7634 265.254C28.7898 267.666 46.4423 263.093 49.5956 261.997C49.6874 261.966 49.7792 261.795 49.8711 261.531C45.8973 262.633 33.8596 265.376 29.7634 265.254Z" fill="white"/>
    <path d="M72.7354 238.797C72.7354 238.797 74.5233 260.393 75.7233 260.785C80.2298 262.254 114.126 270.159 81.9259 256.401L82.4647 240.646L72.7354 238.797Z" fill="#08325B"/>
    <path d="M74.4988 255.525C73.5803 249.016 72.7354 238.797 72.7354 238.797L82.4647 240.646L81.9871 254.674C79.5992 255.39 76.8132 255.464 74.4988 255.525Z" fill="#08325B"/>
    <path d="M95.6209 263.656C96.6434 266.05 78.8992 261.826 75.7214 260.791C75.6295 260.76 75.5316 260.589 75.4336 260.332C79.438 261.348 91.5308 263.858 95.6209 263.656Z" fill="white"/>
    <path d="M78.6612 122.106C78.6612 122.106 87.4537 193.316 85.7332 250.932C85.7332 250.932 75.2201 253.896 72.4464 251.741C70.0707 238.08 70.3891 211.544 66.8194 191.766C63.4579 173.147 62.1293 157.937 62.1293 157.937L61.0026 156.713C61.0026 156.713 53.7715 246.726 52.1856 253.559C43.0686 255.714 40.1847 253.198 40.1847 253.198C40.1847 253.198 36.0211 140.609 38.5682 122.443C41.8991 98.6306 78.6612 122.106 78.6612 122.106Z" fill="#2DD792"/>
    <path opacity="0.1" d="M80.2913 136.819C79.3484 127.622 78.6626 122.106 78.6626 122.106C78.6626 122.106 41.9067 98.6304 38.5758 122.436C38.2696 124.641 38.0553 128.247 37.9268 132.87C40.5902 134.401 74.9889 139.305 80.2913 136.819Z" fill="#08325B"/>
    <path opacity="0.1" d="M61.4082 155.96C61.8123 160.791 64.0533 176.416 66.8209 191.773C70.3905 211.55 70.066 238.08 72.4478 251.747C75.2215 253.902 85.7346 250.938 85.7346 250.938C86.7939 215.499 83.8732 174.922 81.4731 148.93C75.6134 152.555 68.2169 154.349 61.4082 155.96Z" fill="#08325B"/>
    <path d="M64.5537 59.8358C64.5904 52.372 65.1598 42.5263 65.1598 42.5263L50.4464 38.4607C50.4464 38.4607 50.9363 51.8026 51.3649 59.9338C44.6725 62.2177 37.0801 66.4915 37.0801 66.4915L64.8292 73.5267L74.6994 63.9505C74.6994 63.9505 69.7337 61.4462 64.5537 59.8358Z" fill="#FFB39F"/>
    <path d="M64.5537 59.8358C64.5904 52.372 65.1598 42.5263 65.1598 42.5263L50.4464 38.4607C50.4464 38.4607 50.9363 51.8026 51.3649 59.9338C44.6725 62.2177 37.0801 66.4915 37.0801 66.4915L64.8292 73.5267L77.9445 62.2299C77.9384 62.2299 69.7765 59.1746 64.5537 59.8358Z" fill="#E09B8D"/>
    <path d="M49.1507 24.3103C49.1507 24.3103 53.0204 11.795 63.1844 13.7789C73.3485 15.7627 74.8486 29.0127 76.1344 37.9828C77.4202 46.959 74.5363 55.0597 66.5704 56.0332C59.6515 56.8843 47.5587 55.5311 49.1507 24.3103Z" fill="#FFB39F"/>
    <path d="M49.6404 34.7441C49.6404 34.7441 49.0342 33.0787 46.5238 34.9156C43.346 37.2484 46.5973 45.796 50.4425 44.9143C54.2938 44.0387 49.6404 34.7441 49.6404 34.7441Z" fill="#FFB39F"/>
    <path d="M46.126 17.116C46.3404 17.0792 51.1407 16.669 47.9507 16.9813C50.8713 20.1652 50.5835 20.9367 54.6247 21.702C56.7555 28.2903 52.5735 32.3008 52.5735 32.3008L53.7124 40.2361L50.6754 40.5607C50.6754 40.5607 50.7121 35.05 48.4038 34.5786C46.0893 34.1071 45.3913 36.9114 45.3913 36.9114C40.5358 30.7946 35.6497 18.7753 46.126 17.116Z" fill="#08325B"/>
    <path d="M73.858 12.6832C75.8051 7.85218 72.4925 3.57837 72.4925 3.57837C73.062 5.37851 72.7926 7.01333 72.2415 8.36038C71.8619 7.01333 71.1761 5.52546 69.9577 4.06821C69.9577 4.06821 70.3067 8.93594 63.6204 8.32977C56.9342 7.72359 45.2639 8.65428 44.7679 18.9775C44.272 29.3008 54.234 21.8125 54.234 21.8125C54.234 21.8125 74.1457 27.3966 76.999 11.3606L73.858 12.6832Z" fill="#08325B"/>
    <path d="M64.3824 30.55C64.3824 30.55 64.2171 30.5194 63.9293 30.4704C63.6476 30.4214 63.2619 30.354 62.8149 30.2928C62.5945 30.2561 62.3557 30.2255 62.1108 30.2071C61.8659 30.1642 61.6087 30.1765 61.3577 30.1397C61.1005 30.152 60.8372 30.1091 60.5739 30.1397C60.4453 30.1459 60.3106 30.152 60.1821 30.152L59.7902 30.201C59.5269 30.201 59.2759 30.2867 59.0187 30.3234C58.7615 30.3663 58.5227 30.4643 58.2717 30.5132C58.0268 30.5806 57.7941 30.6847 57.5614 30.7582C57.3227 30.8194 57.1206 30.948 56.9063 31.0214C56.6981 31.1072 56.4899 31.1684 56.3246 31.2602C56.1593 31.346 56.0001 31.4133 55.8654 31.4684C55.6021 31.5848 55.4307 31.6399 55.4307 31.6399C55.4307 31.6399 55.4796 31.4807 55.6082 31.2113C55.6695 31.0766 55.7491 30.9112 55.8531 30.7398C55.945 30.55 56.0919 30.3724 56.2573 30.1765C56.4287 29.9928 56.594 29.754 56.8328 29.5764C57.0655 29.3989 57.3104 29.1907 57.5982 29.0254C57.8921 28.8845 58.1982 28.7009 58.535 28.609C58.8718 28.511 59.2208 28.4008 59.582 28.3825L60.1147 28.3396C60.2923 28.3457 60.4698 28.358 60.6413 28.3702C60.8188 28.3763 60.9903 28.4008 61.1556 28.4437C61.3209 28.4804 61.4862 28.511 61.6454 28.5539C61.9516 28.6641 62.2577 28.756 62.5149 28.9029C62.7782 29.0315 63.017 29.1784 63.2252 29.3315C63.4333 29.4723 63.6048 29.6438 63.7578 29.7785C63.9048 29.9254 64.0273 30.0601 64.1191 30.1765C64.3089 30.3908 64.3824 30.55 64.3824 30.55Z" fill="#08325B"/>
    <path d="M74.7852 30.2503C74.7852 30.2503 74.6566 30.2013 74.4301 30.1155C74.2096 30.0298 73.9096 29.9196 73.5728 29.8033C73.4014 29.7482 73.23 29.6808 73.0463 29.6318C72.8687 29.5645 72.6728 29.5339 72.4952 29.4788C72.3054 29.4481 72.1217 29.3992 71.938 29.3869C71.8462 29.3747 71.7543 29.3747 71.6625 29.3563H71.3931C71.2094 29.3257 71.0379 29.393 70.8543 29.3808C70.6767 29.4114 70.493 29.4604 70.3032 29.4788C70.1256 29.5461 69.9419 29.5951 69.7583 29.638C69.5807 29.6992 69.4092 29.7727 69.2378 29.8278C69.0664 29.8829 68.901 29.9319 68.7602 29.9992C68.6194 30.0604 68.4847 30.1094 68.3745 30.1462C68.1541 30.2258 68.001 30.2625 68.001 30.2625C68.001 30.2625 68.0255 30.1217 68.1112 29.8951C68.154 29.7788 68.203 29.638 68.2765 29.4849C68.3439 29.3257 68.4357 29.1542 68.5704 28.995C68.699 28.8297 68.8337 28.6399 69.0113 28.4685C69.2011 28.3093 69.4154 28.144 69.6419 27.9848C69.8991 27.8623 70.1624 27.7215 70.4563 27.6419C70.7563 27.5807 71.0686 27.4949 71.387 27.5194C71.5462 27.5255 71.7053 27.5317 71.8584 27.5439C72.0115 27.5684 72.1646 27.6113 72.3115 27.648C72.4646 27.6786 72.5993 27.7398 72.734 27.795C72.8687 27.8562 73.0034 27.9052 73.1197 27.9848C73.6035 28.2664 73.9647 28.6277 74.2157 28.9644C74.4607 29.3073 74.6137 29.6257 74.6872 29.8645C74.7791 30.1033 74.7852 30.2503 74.7852 30.2503Z" fill="#08325B"/>
    <path d="M67.2305 30.936C67.6223 31.7565 67.9652 32.577 68.3081 33.3975C68.4857 33.8077 68.6326 34.224 68.8041 34.6282L69.2939 35.8589L69.7837 37.0773C69.949 37.4876 70.1082 37.8917 70.2919 38.2836L70.5491 38.8836C70.6348 39.0795 70.7083 39.2938 70.8124 39.4775C71.0022 39.8633 71.2043 40.2368 71.3818 40.6348L71.5961 41.1123L71.2226 41.296C70.6593 41.5716 70.0899 41.8287 69.5143 42.0736C68.9326 42.3124 68.3571 42.5512 67.7448 42.741C68.2163 42.3186 68.7183 41.9389 69.2204 41.5593C69.7286 41.1919 70.2368 40.8307 70.7573 40.4878L70.5981 41.143C70.3348 40.7633 70.1021 40.3653 69.8511 39.9796C69.6 39.5877 69.4347 39.1714 69.2266 38.7611L68.9449 38.1427L68.7061 37.5059C68.5591 37.0773 68.3755 36.6671 68.253 36.2324L67.8795 34.9343C67.7754 34.4935 67.6713 34.0587 67.5795 33.6179C67.4142 32.7362 67.2795 31.8422 67.2305 30.936Z" fill="#E09B8D"/>
    <path d="M49.5037 43.1818C49.2527 43.0348 49.02 42.8573 48.8119 42.6491C48.6037 42.4409 48.4077 42.2082 48.2914 41.9082C48.2363 41.7613 48.1873 41.6021 48.1934 41.4306C48.1873 41.3449 48.1934 41.2592 48.2179 41.1735C48.2363 41.0877 48.2547 41.002 48.2975 40.9285C48.3649 40.7693 48.469 40.6408 48.5853 40.5183C48.6343 40.4509 48.7016 40.4081 48.7629 40.3591L48.9527 40.2122L48.8363 40.4142C48.8363 39.7529 48.818 39.0855 48.7629 38.4304C48.7016 37.7813 48.622 37.1078 48.3832 36.5629C48.322 36.4343 48.2485 36.3118 48.1628 36.2384C48.0771 36.1649 47.9975 36.1343 47.8812 36.1404C47.8077 36.1588 47.7832 36.1465 47.6914 36.1894C47.6179 36.22 47.526 36.2445 47.4587 36.2812C47.3301 36.3425 47.2015 36.4159 47.0791 36.5078C46.9627 36.6057 46.8525 36.716 46.7668 36.8445C46.6811 36.9731 46.5954 37.1078 46.5402 37.2609C46.4239 37.5609 46.3749 37.8977 46.381 38.2344C46.2831 37.9099 46.2708 37.5548 46.3382 37.2058C46.3688 37.0282 46.43 36.8568 46.5096 36.6915C46.5954 36.5261 46.7056 36.3792 46.8341 36.2445L47.0423 36.0608L47.2872 35.9016C47.3668 35.8526 47.4403 35.8281 47.5199 35.7853C47.5811 35.7485 47.722 35.7057 47.8138 35.6812C48.0342 35.6322 48.3036 35.7057 48.4751 35.8465C48.6527 35.9873 48.7629 36.1588 48.8547 36.3241C49.0323 36.6609 49.1241 37.0099 49.1915 37.3527C49.2588 37.6956 49.3078 38.0385 49.3323 38.3875C49.3813 39.0794 49.3813 39.7591 49.3323 40.4448L49.3262 40.5612L49.216 40.6469C49.118 40.7204 48.9955 40.7816 48.9098 40.8612C48.818 40.9408 48.7323 41.0265 48.6771 41.1306C48.6343 41.1735 48.6282 41.2347 48.6098 41.2837C48.5853 41.3388 48.5731 41.3939 48.5731 41.449C48.5547 41.5653 48.5731 41.6878 48.6037 41.8102C48.671 42.0552 48.7935 42.3062 48.9588 42.5327C49.1119 42.7654 49.3017 42.9797 49.5037 43.1818Z" fill="#E09B8D"/>
    <path d="M59.0537 36.3486C59.0537 36.3486 59.0966 36.4711 59.1762 36.6915C59.2129 36.8017 59.2558 36.9364 59.3109 37.0834C59.3843 37.2242 59.4578 37.3773 59.5374 37.5426C59.6231 37.7079 59.7578 37.861 59.8619 38.0386C59.9354 38.112 60.0089 38.1855 60.0824 38.259C60.1558 38.3386 60.2354 38.4059 60.3273 38.461C60.4987 38.5957 60.7069 38.657 60.909 38.7182C61.013 38.7243 61.1233 38.7549 61.2274 38.7549C61.3314 38.7366 61.4417 38.7366 61.5457 38.7121L61.8519 38.608L62.1274 38.4365C62.2866 38.2835 62.4581 38.1488 62.5622 37.9528C62.703 37.7875 62.7458 37.5671 62.8499 37.3834C62.8867 37.1813 62.954 36.9854 62.9785 36.8017C62.9908 36.6119 63.0091 36.4405 63.0275 36.2813C63.0336 36.1282 63.0152 35.9874 63.0152 35.871C63.0091 35.6384 63.0091 35.5037 63.0091 35.5037C63.0091 35.5037 63.052 35.6261 63.1316 35.8465C63.1683 35.9568 63.2234 36.0915 63.254 36.2568C63.2785 36.4221 63.303 36.6058 63.3275 36.814C63.3398 37.0221 63.3091 37.2487 63.2908 37.4936C63.2112 37.7202 63.1867 37.9957 63.0275 38.2284C62.905 38.4794 62.7152 38.6998 62.4948 38.9019L62.1152 39.1529C61.9743 39.208 61.8274 39.2631 61.6804 39.3121C61.5274 39.3366 61.3743 39.3427 61.2212 39.3611C61.0682 39.355 60.9151 39.3182 60.7681 39.2999C60.4804 39.2142 60.2109 39.0795 60.0028 38.8958C59.764 38.7427 59.6415 38.4978 59.4823 38.308C59.3782 38.0875 59.2619 37.8855 59.2068 37.6834C59.1517 37.4814 59.1088 37.2916 59.0782 37.1324C59.0537 36.9732 59.0598 36.8323 59.0537 36.716C59.0537 36.4772 59.0537 36.3486 59.0537 36.3486Z" fill="#08325B"/>
    <path d="M70.1758 34.512C70.1758 34.512 70.2186 34.6344 70.2982 34.8548C70.335 34.9651 70.3778 35.0998 70.4329 35.2467C70.5064 35.3875 70.5799 35.5406 70.6595 35.7059C70.7452 35.8712 70.8799 36.0243 70.984 36.2019C71.0575 36.2754 71.131 36.3488 71.2044 36.4223C71.2779 36.5019 71.3575 36.5693 71.4494 36.6244C71.6208 36.7591 71.829 36.8203 72.031 36.8815C72.1351 36.8877 72.2453 36.9183 72.3494 36.9183C72.4535 36.8999 72.5637 36.8999 72.6678 36.8754L72.974 36.7713L73.2495 36.5999C73.4087 36.4468 73.5801 36.3121 73.6842 36.1162C73.8251 35.9508 73.8679 35.7304 73.972 35.5467C74.0087 35.3447 74.0761 35.1487 74.1006 34.9651C74.1128 34.7752 74.1312 34.6038 74.1496 34.4446C74.1557 34.2915 74.1373 34.1507 74.1373 34.0344C74.1312 33.8017 74.1312 33.667 74.1312 33.667C74.1312 33.667 74.1741 33.7894 74.2537 34.0099C74.2904 34.1201 74.3455 34.2548 74.3761 34.4201C74.4006 34.5854 74.4251 34.7691 74.4496 34.9773C74.4618 35.1855 74.4312 35.412 74.4128 35.6569C74.3333 35.8835 74.3088 36.159 74.1496 36.3917C74.0271 36.6427 73.8373 36.8632 73.6169 37.0652L73.2372 37.3163C73.0964 37.3714 72.9495 37.4265 72.8025 37.4755C72.6495 37.4999 72.4964 37.5061 72.3433 37.5244C72.1902 37.5183 72.0372 37.4816 71.8902 37.4632C71.6024 37.3775 71.333 37.2428 71.1248 37.0591C70.886 36.906 70.7636 36.6611 70.6044 36.4713C70.5003 36.2509 70.384 36.0488 70.3289 35.8468C70.2737 35.6447 70.2309 35.4549 70.2003 35.2957C70.1758 35.1365 70.1819 34.9957 70.1758 34.8793C70.1758 34.6405 70.1758 34.512 70.1758 34.512Z" fill="#08325B"/>
    <path d="M70.7067 48.1963C70.7067 48.1963 70.7863 48.2024 70.7006 48.129C70.6394 48.0738 70.5291 48.0065 70.3944 47.9146C70.1189 47.7432 69.7148 47.5289 69.2188 47.2962C68.7229 47.0697 68.1473 46.8248 67.5167 46.6166C67.2044 46.5064 66.8738 46.4329 66.5431 46.3411C66.2125 46.2553 65.8696 46.1941 65.5267 46.1574C64.8409 46.0655 64.1552 46.0533 63.5123 46.1206C62.8694 46.188 62.2693 46.3288 61.7489 46.4819C61.2345 46.6411 60.8059 46.8125 60.5059 46.9411C60.1998 47.0697 60.0283 47.1432 60.0283 47.1432C60.0283 47.1432 60.1447 46.9901 60.3773 46.7513C60.61 46.5125 60.9713 46.188 61.4733 45.8757C61.9693 45.5634 62.6122 45.2757 63.3469 45.1103C64.0756 44.9389 64.8899 44.9022 65.6859 45.0063C66.0778 45.0675 66.4696 45.1532 66.8431 45.2573C67.2166 45.3614 67.5718 45.5145 67.9024 45.6675C68.5698 45.9798 69.1392 46.3594 69.5862 46.7329C70.0332 47.1003 70.3577 47.4677 70.5598 47.7432C70.6638 47.8779 70.7251 48.0004 70.7618 48.0861C70.7741 48.1228 70.7986 48.1841 70.7496 48.1963C70.7128 48.2024 70.7067 48.1963 70.7067 48.1963Z" fill="#E09B8D"/>
    <path d="M69.6133 59.6278C69.6133 59.6278 85.288 57.944 87.333 69.9878C89.372 82.0316 89.1699 85.2951 89.1699 85.2951L73.8626 83.048L69.6133 59.6278Z" fill="#4E7FF1"/>
    <path d="M82.8629 69.3264C81.9445 61.6789 74.15 59.9889 69.6129 59.6277C67.574 62.432 64.7758 64.4832 60.8877 64.6056C56.4976 64.7403 52.4565 63.179 50.3073 59.8542C43.4313 60.6563 36.6532 62.6402 35.1041 67.2813C31.8406 77.078 34.6938 130.96 34.6938 130.96C34.6938 130.96 62.143 135.656 84.6447 131.37C84.6508 131.376 84.0875 79.5333 82.8629 69.3264Z" fill="#4E7FF1"/>
    <path opacity="0.2" d="M33.5488 93.4078C33.6468 111.183 34.6999 130.966 34.6999 130.966C34.6999 130.966 62.149 135.662 84.6508 131.376C84.6508 131.376 84.2222 91.9873 83.3038 75.1187C66.7412 81.2783 50.1665 87.4074 33.5488 93.4078Z" fill="#352C38"/>
    <path d="M50.4662 107.607C50.4662 107.607 49.8845 105.862 52.6827 104.693C55.4809 103.53 84.4974 95.9554 86.3588 96.1881C88.2202 96.4208 110.642 99.1577 111.028 100.352C111.414 101.546 84.1423 110.406 84.1423 110.406L50.4662 107.607Z" fill="#E1EDFF"/>
    <path d="M85.6613 112.732C85.6613 112.732 53.8833 112.597 51.4341 109.738C48.985 106.879 48.9421 104.803 62.8228 107.252C76.7035 109.701 84.7306 109.352 84.7306 109.352C84.7306 109.352 110.214 97.4922 111.035 100.352C111.843 103.211 114.555 102.482 85.6613 112.732Z" fill="#C0D5FF"/>
    <path d="M111.029 100.352C110.215 97.4922 84.7249 109.352 84.7249 109.352C84.7249 109.352 84.6331 109.358 84.4678 109.358C84.9943 110.43 85.4719 111.526 85.9128 112.64C114.537 102.482 111.843 103.199 111.029 100.352Z" fill="#B1C5E8"/>
    <path d="M49.5336 101.08C49.5336 101.08 48.9519 99.335 51.7501 98.1655C54.5482 97.0022 83.5648 89.4281 85.4262 89.6608C87.2876 89.8934 109.71 92.6304 110.095 93.8244C110.481 95.0183 83.2097 103.878 83.2097 103.878L49.5336 101.08Z" fill="#E1EDFF"/>
    <path d="M84.7229 106.211C84.7229 106.211 52.9448 106.076 50.4957 103.217C48.0465 100.358 48.0036 98.282 61.8843 100.731C75.765 103.18 83.7922 102.831 83.7922 102.831C83.7922 102.831 109.276 90.9712 110.096 93.8306C110.911 96.6839 113.623 95.9553 84.7229 106.211Z" fill="#C0D5FF"/>
    <path d="M110.095 93.8243C109.281 90.9649 83.7913 102.825 83.7913 102.825C83.7913 102.825 83.6995 102.831 83.5342 102.831C84.0608 103.903 84.5383 104.999 84.9792 106.113C113.604 95.9612 110.91 96.6776 110.095 93.8243Z" fill="#B1C5E8"/>
    <path d="M49.4119 95.7532C49.4119 95.7532 48.8486 94.2163 51.555 93.1877C54.2613 92.159 82.3411 85.4912 84.1412 85.6994C85.9414 85.9075 107.641 88.3138 108.015 89.367C108.388 90.4201 81.9982 98.2146 81.9982 98.2146L49.4119 95.7532Z" fill="#E1EDFF"/>
    <path d="M83.4611 100.266C83.4611 100.266 52.7117 100.143 50.3421 97.633C47.9726 95.1165 47.9297 93.2918 61.3634 95.4471C74.791 97.6024 82.561 97.2962 82.561 97.2962C82.561 97.2962 107.224 86.8566 108.014 89.3732C108.804 91.8836 111.425 91.2407 83.4611 100.266Z" fill="#C0D5FF"/>
    <path d="M108.015 89.3671C107.225 86.8505 82.5616 97.2901 82.5616 97.2901C82.5616 97.2901 82.4759 97.2963 82.3105 97.2963C82.8249 98.2392 83.2841 99.2066 83.7127 100.186C111.407 91.2407 108.798 91.8713 108.015 89.3671Z" fill="#B1C5E8"/>
    <path d="M50.2559 88.5832C50.2559 88.5832 49.7477 87.0218 52.4908 86.1034C55.2338 85.1788 83.5402 79.5702 85.3342 79.8458C87.1282 80.1213 108.718 83.3419 109.054 84.4073C109.385 85.4727 82.7258 92.2692 82.7258 92.2692L50.2559 88.5832Z" fill="white"/>
    <path d="M84.1179 94.3755C84.1179 94.3755 53.393 93.102 51.1214 90.4997C48.8498 87.8975 48.8743 86.0728 62.2161 88.7302C75.558 91.3875 83.328 91.3692 83.328 91.3692C83.328 91.3692 108.365 81.8603 109.057 84.4074C109.755 86.9484 112.406 86.4035 84.1179 94.3755Z" fill="#C0D5FF"/>
    <path d="M109.063 84.4074C108.371 81.8664 83.3341 91.3692 83.3341 91.3692C83.3341 91.3692 83.2483 91.3692 83.083 91.3692C83.5606 92.3305 83.9831 93.3163 84.3749 94.3082C112.381 86.4096 109.755 86.9423 109.063 84.4074Z" fill="#B1C5E8"/>
    <path d="M34.29 89.7402L49.3953 86.0664C49.3953 86.0664 52.6588 108.109 53.4793 109.334C54.2998 110.558 79.6059 111.783 79.6059 111.783L86.9534 112.193C86.9534 112.193 55.9285 125.253 46.9523 119.951C37.9638 114.636 34.29 89.7402 34.29 89.7402Z" fill="#FFB39F"/>
    <path d="M35.7659 92.3608C40.401 90.928 44.9687 89.2259 49.7078 88.1911C49.5058 86.8747 49.3895 86.0603 49.3895 86.0603L34.2842 89.7341C34.2842 89.7341 34.4495 90.8484 34.7924 92.6486C35.1169 92.5567 35.4475 92.4649 35.7659 92.3608Z" fill="#E09B8D"/>
    <path d="M84.1924 114.232C84.1924 114.232 95.6728 111.171 95.6728 108.874C95.6728 106.578 91.5399 98.1593 94.4483 109.334C94.4483 109.334 88.3253 94.1794 93.2237 110.099C93.2237 110.099 88.4784 97.7001 91.6929 110.405C91.6929 110.405 86.7946 101.833 90.3153 111.017L85.919 112.646L75.3141 112.548L69.6504 118.059L84.1924 114.232Z" fill="#FFB39F"/>
    <path d="M111.134 103.058C111.134 103.058 105.011 87.9033 109.909 103.823C109.909 103.823 105.164 91.4239 108.378 104.129C108.378 104.129 103.48 95.5569 106.627 104.784L103.241 106.358C104.49 106.45 106.033 106.401 107.325 105.984C111.244 105.194 112.358 103.841 112.358 102.598C112.358 100.302 108.225 91.8832 111.134 103.058Z" fill="#FFB39F"/>
    <path d="M126.77 264.177C126.794 266.399 125.013 268.224 122.79 268.255C120.567 268.279 118.743 266.497 118.712 264.275L118.553 251.294C118.528 249.072 120.31 247.247 122.533 247.216C124.756 247.192 126.58 248.974 126.611 251.196L126.77 264.177Z" fill="#08325B"/>
    <path d="M70.3832 264.863C70.4077 267.085 68.626 268.91 66.4033 268.94C64.1807 268.965 62.3561 267.183 62.3255 264.961L62.1663 251.98C62.1418 249.757 63.9235 247.933 66.1462 247.902C68.3688 247.878 70.1934 249.659 70.224 251.882L70.3832 264.863Z" fill="#08325B"/>
    <path d="M122.194 254.974C122.256 259.995 118.239 264.109 113.218 264.171L75.5071 264.63C70.4863 264.691 66.3717 260.674 66.3105 255.654L62.2448 169.816C62.1836 164.795 66.2002 160.681 71.2211 160.62L114.976 160.087C119.996 160.026 124.111 164.042 124.172 169.063L122.194 254.974Z" fill="#0A3B77"/>
    <path d="M123.976 177.605L124.172 169.069C124.111 164.049 119.996 160.032 114.976 160.093L71.2211 160.626C66.2002 160.687 62.1836 164.802 62.2448 169.823L62.6489 178.352L123.976 177.605Z" fill="#08325B"/>
    <path d="M131.452 166.938C131.471 168.328 130.356 169.467 128.966 169.486L57.475 170.355C56.0851 170.373 54.9462 169.259 54.9278 167.869L54.8176 158.807C54.7992 157.417 55.9136 156.278 57.3035 156.26L128.795 155.391C130.185 155.372 131.324 156.487 131.342 157.877L131.452 166.938Z" fill="#0A3B77"/>
    <path d="M93.5215 192.11L101.812 187.126L99.8036 192.336L93.5215 192.11Z" fill="white"/>
    <path d="M90.374 184.217C90.374 184.217 91.0476 184.211 92.1007 185.785C93.1538 187.358 95.4622 191.657 95.4622 191.657L99.7054 189.777L100.661 188.118C100.661 188.118 98.8482 184.419 97.3787 184.193L90.374 184.217Z" fill="white"/>
    <path d="M88.0715 185.344C88.0715 185.344 89.3328 183.923 90.3799 184.646C91.4269 185.362 93.2331 188.454 93.2331 188.454L90.2451 193.732L84.8447 190.75L88.0715 185.344Z" fill="white"/>
    <path d="M97.2923 198.679L97.7393 208.341L94.1084 204.104L97.2923 198.679Z" fill="white"/>
    <path d="M105.729 199.653C105.729 199.653 105.416 200.247 103.53 200.43C101.645 200.614 96.7646 200.602 96.7646 200.602L96.4033 205.231L97.4075 206.86C97.4075 206.86 101.522 207.019 102.416 205.837L105.729 199.653Z" fill="white"/>
    <path d="M105.828 197.094C105.828 197.094 106.477 198.882 105.35 199.457C104.224 200.039 100.648 200.161 100.648 200.161L97.415 195.03L102.607 191.693L105.828 197.094Z" fill="white"/>
    <path d="M89.9752 198.539L81.4092 194.051L86.9015 193.059L89.9752 198.539Z" fill="white"/>
    <path d="M84.8754 205.335C84.8754 205.335 84.5202 204.766 85.3101 203.045C86.1061 201.324 88.5736 197.112 88.5736 197.112L84.759 194.467L82.8487 194.516C82.8487 194.516 80.6322 197.987 81.2077 199.359L84.8754 205.335Z" fill="white"/>
    <path d="M87.0363 206.713C87.0363 206.713 85.1688 206.37 85.2362 205.102C85.3035 203.835 87.0057 200.688 87.0057 200.688L93.0674 200.486L93.3307 206.651L87.0363 206.713Z" fill="white"/>
</svg>
