<svg width="24" height="30" viewBox="0 0 24 30" fill="none" xmlns="http://www.w3.org/2000/svg">
    <path d="M6.04442 0.0426769C6.21167 -0.0207616 6.39737 0.0103809 6.57385 0C11.9188 0.00576714 17.265 0.00461374 22.61 0.00115345C22.9652 0.00576717 23.377 -0.0415232 23.663 0.219152C23.9064 0.412927 24.0114 0.728967 23.9941 1.03347C23.9941 10.1894 23.9941 19.3453 23.9952 28.5024C24.0506 29.026 23.6169 29.5439 23.0794 29.5289C15.7309 29.5358 8.38127 29.5278 1.03278 29.5324C0.507967 29.59 -0.0076154 29.1529 0.00622574 28.6177C-0.00184826 21.2681 0.00507245 13.9184 0.00276559 6.56877C-0.020303 6.26081 0.10196 5.96092 0.331492 5.75445C2.23696 3.85245 4.13896 1.94468 6.04442 0.0426769ZM7.38586 1.8501C7.38009 3.38993 7.39278 4.93091 7.38125 6.47189C7.39163 6.95748 6.95794 7.39463 6.47119 7.38309C4.93021 7.39117 3.38923 7.38079 1.8494 7.38655C1.8471 14.1526 1.8471 20.9186 1.8494 27.6846C8.61541 27.6857 15.3814 27.6857 22.1474 27.6846C22.1486 19.0731 22.1486 10.4616 22.1474 1.8501C17.2269 1.84779 12.3064 1.84895 7.38586 1.8501ZM3.19315 5.533C3.97402 5.54914 4.75604 5.53646 5.53807 5.53876C5.53691 4.75674 5.54614 3.97471 5.53345 3.19269C4.72605 3.94357 3.94288 4.7256 3.19315 5.533Z" fill="#24304F"/>
    <path d="M4.61794 12.923C7.69298 12.9207 10.768 12.9218 13.8431 12.923C13.8454 13.5377 13.8454 14.1514 13.8431 14.7661C10.768 14.7673 7.69298 14.7673 4.61794 14.7661C4.61563 14.1514 4.61563 13.5377 4.61794 12.923Z" fill="#24304F"/>
    <path d="M4.61794 17.5368C9.53847 17.5345 14.459 17.5345 19.3795 17.5368C19.3818 18.1515 19.3818 18.7652 19.3795 19.3799C14.459 19.3811 9.53847 19.3811 4.61794 19.3799C4.61563 18.7652 4.61563 18.1515 4.61794 17.5368Z" fill="#24304F"/>
    <path d="M4.61794 22.1504C9.53847 22.1492 14.459 22.1481 19.3795 22.1504C19.3818 22.7652 19.3818 23.3788 19.3795 23.9936C14.459 23.9947 9.53847 23.9947 4.61794 23.9947C4.61563 23.3799 4.61563 22.7652 4.61794 22.1504Z" fill="#24304F"/>
</svg>
