<svg width="26" height="26" viewBox="0 0 26 26" fill="none" xmlns="http://www.w3.org/2000/svg">
    <path d="M11.8384 0.0221385C14.0311 -0.0597143 16.246 0.0762444 18.3846 0.584009C19.5204 0.889223 20.7118 1.23467 21.6007 2.04349C22.0432 2.42362 22.2762 3.11173 21.9183 3.62644C21.3442 4.45884 20.3456 4.83897 19.4317 5.16915C18.9393 6.37752 17.6481 6.95327 16.4817 7.31536C14.1282 7.97573 11.568 7.96463 9.23386 7.22518C8.16873 6.85199 7.01207 6.28318 6.56965 5.17054C5.70007 4.85423 4.7764 4.50323 4.17311 3.76656C3.8569 3.39891 3.79033 2.83565 4.06909 2.42778C4.5545 1.70775 5.38525 1.34011 6.16329 1.02657C7.98012 0.371747 9.91621 0.112315 11.8384 0.0221385ZM12.7469 2.60536C11.8176 2.74686 11.3655 3.99963 11.9896 4.70162C12.5527 5.46604 13.8924 5.26626 14.2031 4.36866C14.6233 3.46412 13.7107 2.36396 12.7469 2.60536Z" fill="#4E7FF1"/>
    <path d="M8.15214 12.2779C7.73191 11.2693 7.79293 10.1608 7.80125 9.09253C11.2671 9.09392 14.7329 9.09253 18.1988 9.09253C18.1863 9.92771 18.2598 10.7768 18.0559 11.5939C17.755 12.8772 16.945 14.0328 15.8369 14.7487C14.5124 15.6297 12.7705 15.8364 11.274 15.2967C9.86078 14.8084 8.69164 13.6721 8.15214 12.2779Z" fill="#4E7FF1"/>
    <path d="M2.60042 18.1977C4.42695 17.7454 6.25487 17.2945 8.07724 16.8242C8.97178 18.2379 9.85384 19.6599 10.7401 21.0792C10.9217 21.3705 11.0882 21.6743 11.3226 21.9282C11.7775 20.5756 12.2268 19.2215 12.672 17.8661C12.3461 17.5484 12.0229 17.2293 11.7081 16.9019C12.5721 16.8991 13.4376 16.8964 14.303 16.9047C13.9784 17.2265 13.6539 17.5484 13.328 17.8675C13.776 19.2451 14.2489 20.613 14.6941 21.992C15.7675 20.269 16.8451 18.5501 17.9144 16.8242C19.7424 17.282 21.5717 17.7343 23.3982 18.1977C24.2692 20.7975 25.1332 23.3988 26 26.0001C17.3333 26.0001 8.66667 26.0001 0 26.0001C0.865418 23.3988 1.72806 20.7962 2.60042 18.1977Z" fill="#4E7FF1"/>
</svg>
