<svg width="20" height="20" viewBox="0 0 20 20" fill="none" xmlns="http://www.w3.org/2000/svg">
    <circle cx="10" cy="10" r="10" fill="#EA4335"/>
    <path d="M10.8979 11.2017H9.34912L9.02539 5H11.2217L10.8979 11.2017ZM9 13.3726C9 13.0171 9.09521 12.7484 9.28564 12.5664C9.47607 12.3844 9.75326 12.2935 10.1172 12.2935C10.4684 12.2935 10.7393 12.3866 10.9297 12.5728C11.1243 12.759 11.2217 13.0256 11.2217 13.3726C11.2217 13.7069 11.1243 13.9714 10.9297 14.166C10.735 14.3564 10.4642 14.4517 10.1172 14.4517C9.76172 14.4517 9.48665 14.3586 9.29199 14.1724C9.09733 13.9819 9 13.7153 9 13.3726Z" fill="white"/>
</svg>
