<svg width="28" height="29" viewBox="0 0 28 29" fill="none" xmlns="http://www.w3.org/2000/svg">
    <path d="M12.4542 0.0574439C15.2152 -0.236174 18.0825 0.604807 20.226 2.37377C22.2065 3.96511 23.5779 6.2923 24.0056 8.79712C24.4467 11.1437 23.9525 13.5941 22.8432 15.6893C21.2519 18.7113 18.7362 21.1194 16.0888 23.2219C15.2551 23.8816 14.3887 24.4991 13.5344 25.1322C10.3409 22.8292 7.16909 20.3256 4.98689 16.9967C3.5913 14.8797 2.70319 12.3423 2.93519 9.78189C3.11764 7.34474 4.1882 4.99096 5.89312 3.24133C7.61375 1.45183 9.98082 0.294272 12.4542 0.0574439ZM10.0412 2.66376C8.55623 3.31987 7.25851 4.39526 6.34503 5.73769C5.01347 7.67098 4.50357 10.1722 5.05576 12.4619C5.56809 14.5946 6.83318 16.4529 8.26382 18.0781C9.82495 19.8362 11.6495 21.3345 13.5308 22.7361C15.8049 21.0566 17.9955 19.2079 19.7282 16.958C20.9087 15.4186 21.873 13.6473 22.1545 11.7055C22.4566 9.51365 21.8416 7.2227 20.5173 5.45495C19.4491 4.00256 17.9146 2.90421 16.2 2.35202C14.2014 1.69953 11.9649 1.81432 10.0412 2.66376Z" fill="#24304F"/>
    <path d="M12.6331 5.88511C13.9767 5.62895 15.4219 5.96849 16.4961 6.81913C17.5606 7.63716 18.2529 8.91675 18.3472 10.2568C18.4523 11.5279 18.0258 12.8341 17.1836 13.7935C16.4163 14.684 15.3156 15.2809 14.1483 15.4223C12.8325 15.5987 11.4538 15.1975 10.44 14.3396C9.15078 13.2872 8.49104 11.5352 8.75928 9.89306C9.03719 7.91627 10.6684 6.2319 12.6331 5.88511ZM12.8639 7.81115C11.9975 8.01536 11.2363 8.63884 10.8835 9.45807C10.4992 10.3099 10.5621 11.3503 11.0611 12.1429C11.5082 12.88 12.3008 13.4044 13.1611 13.5047C14.2112 13.6545 15.318 13.1591 15.9125 12.2819C16.7136 11.1787 16.5613 9.52574 15.5814 8.58084C14.8878 7.87761 13.8221 7.57674 12.8639 7.81115Z" fill="#24304F"/>
    <path d="M1.93208 19.3323C2.72352 19.3383 3.51617 19.3214 4.30761 19.3383C4.81268 20.0089 5.37092 20.6373 5.93399 21.2595C5.12684 21.2704 4.3209 21.2656 3.51375 21.2656C3.13797 23.2013 2.73802 25.1322 2.35861 27.0667C9.80903 27.0654 17.2594 27.0618 24.7099 27.0691C24.3232 25.1358 23.9329 23.2037 23.5523 21.2704C22.7439 21.2607 21.9344 21.2656 21.126 21.268C21.6915 20.6421 22.2498 20.0102 22.7621 19.3383C23.5523 19.3238 24.3437 19.3359 25.1352 19.3323C25.7768 22.5548 26.4196 25.7786 27.0685 28.9999C18.0461 28.9963 9.02242 29.0012 0 28.9975C0.644027 25.7762 1.29047 22.5548 1.93208 19.3323Z" fill="#24304F"/>
</svg>
