<svg width="33" height="34" viewBox="0 0 33 34" fill="none" xmlns="http://www.w3.org/2000/svg">
    <path d="M17.1497 0.655812C18.0202 -0.258665 19.3692 0.0768727 20.4913 0.0136156C21.3315 -0.0716439 22.2268 0.243266 22.7067 0.965222C23.243 1.6858 23.0917 2.62916 23.0931 3.468C23.0436 4.59013 22.0164 5.51973 20.9039 5.52661C20.9011 5.91027 20.9011 6.29257 20.908 6.67623C23.6253 6.88938 26.2367 8.00326 28.327 9.74282C28.8715 9.19551 29.4092 8.64133 29.9689 8.11052C30.3732 7.73098 31.0663 7.7626 31.4513 8.1559C31.8515 8.53957 31.8955 9.23952 31.5104 9.65069C30.9851 10.22 30.4144 10.7481 29.8754 11.305C31.7497 13.5217 32.8746 16.3642 32.986 19.2685C33.1207 22.188 32.2365 25.1363 30.5327 27.5084C28.6199 30.1982 25.6578 32.1179 22.4179 32.7519C21.3769 32.9733 20.3098 33.0255 19.2482 33.0187C15.7622 33.0145 12.2762 33.0269 8.79015 33.0132C8.14933 33.0255 7.60064 32.393 7.71616 31.7604C7.77666 31.2365 8.26484 30.8116 8.7929 30.8226C12.4632 30.8102 16.1348 30.8253 19.8051 30.8157C21.4306 30.806 23.056 30.4513 24.5233 29.7472C26.9573 28.5976 28.9389 26.5224 29.9565 24.0293C30.8737 21.8345 31.0525 19.3386 30.4419 17.0394C29.8451 14.714 28.4562 12.6031 26.5585 11.1331C24.6127 9.60944 22.1388 8.77334 19.6676 8.8146C17.2845 8.8311 14.922 9.66582 13.0449 11.129C10.8336 12.8273 9.32646 15.4085 8.93317 18.167C8.87541 18.5163 8.87403 18.8835 8.73239 19.2149C8.49862 19.7141 7.8523 19.952 7.34624 19.7347C6.94057 19.5793 6.64491 19.1544 6.65866 18.7171C6.86081 16.0011 7.95956 13.3691 9.71425 11.2885C9.16419 10.7027 8.5605 10.1705 8.02969 9.56818C7.57451 8.98649 7.93481 8.04176 8.64438 7.87812C9.09819 7.7406 9.55474 7.97025 9.85177 8.30579C10.3248 8.78022 10.7951 9.25465 11.2682 9.7277C13.3543 7.97575 15.9836 6.89076 18.6995 6.66936C18.7036 6.28982 18.7064 5.91027 18.7036 5.53073C17.6434 5.50735 16.6464 4.67814 16.5254 3.60827C16.4855 2.60578 16.3411 1.41765 17.1497 0.655812ZM18.7036 2.21386C18.7023 2.58103 18.7023 2.94819 18.7023 3.31673C19.4366 3.31261 20.1709 3.31673 20.9053 3.31536C20.9066 2.94819 20.9053 2.58103 20.9025 2.21386C20.1695 2.21524 19.4366 2.21661 18.7036 2.21386Z" fill="#24304F"/>
    <path d="M24.536 13.5368C24.9898 13.0541 25.8603 13.1422 26.2137 13.7005C26.508 14.1171 26.4475 14.725 26.0872 15.0825C24.9953 16.2046 23.8649 17.2882 22.7772 18.4131C23.2379 19.362 23.2049 20.5281 22.6727 21.4398C22.047 22.5936 20.6773 23.2729 19.3792 23.0873C18.0865 22.9387 16.9438 21.9404 16.622 20.678C16.2548 19.4019 16.7664 17.9401 17.8431 17.1659C18.7947 16.4384 20.1424 16.3243 21.2164 16.8427C22.333 15.7508 23.4235 14.6328 24.536 13.5368ZM19.5635 18.7459C18.7851 18.8793 18.4345 19.9217 18.9515 20.5102C19.4466 21.1744 20.6251 20.9668 20.8451 20.1623C21.1353 19.3977 20.3487 18.5383 19.5635 18.7459Z" fill="#24304F"/>
    <path d="M0.860218 22.0491C1.1215 22.0009 1.38828 22.0174 1.65368 22.0161C5.87678 22.0229 10.1012 22.0092 14.3243 22.0229C14.9954 22.0078 15.5441 22.7105 15.3736 23.3582C15.2732 23.9055 14.7108 24.2644 14.1731 24.2177C9.8606 24.2177 5.54812 24.2191 1.23563 24.2177C0.741954 24.2548 0.227647 23.9688 0.068129 23.4861C-0.167022 22.8975 0.233148 22.1591 0.860218 22.0491Z" fill="#24304F"/>
    <path d="M5.26182 26.4496C8.17852 26.374 11.1048 26.4414 14.0257 26.4166C14.562 26.3506 15.1698 26.605 15.3362 27.1537C15.6057 27.8234 15.046 28.6306 14.3241 28.6127C11.4266 28.6265 8.52918 28.6141 5.63174 28.6182C5.17106 28.6498 4.68976 28.4092 4.50548 27.9746C4.2002 27.3765 4.60037 26.5665 5.26182 26.4496Z" fill="#24304F"/>
</svg>
