<svg width="16" height="23" viewBox="0 0 16 23" fill="none" xmlns="http://www.w3.org/2000/svg">
    <path d="M0.000318656 0.000138221C5.30823 0.000138221 10.6161 -0.000414675 15.9235 0.000691141C15.9235 7.66676 15.9263 15.3334 15.9224 23C13.2696 21.8212 10.6178 20.6396 7.96385 19.4642C5.30879 20.6402 2.65704 21.8245 0.0014245 22.9994C-0.00134004 15.3334 0.000871563 7.66676 0.000318656 0.000138221ZM7.07754 3.53875C7.07754 4.7181 7.07809 5.89745 7.07754 7.07736C5.89819 7.07791 4.71828 7.07736 3.53893 7.07736C3.53893 7.66731 3.53838 8.25671 3.53893 8.84666C4.71828 8.84666 5.89763 8.84611 7.07754 8.84722C7.07809 10.0266 7.07754 11.2059 7.07754 12.3853C7.66694 12.3847 8.25689 12.3864 8.84629 12.3847C8.8474 11.2054 8.84629 10.026 8.84684 8.84666C10.0262 8.84556 11.2055 8.84777 12.3849 8.84611C12.3866 8.25671 12.3849 7.66676 12.3855 7.07736C11.2061 7.07736 10.0268 7.07791 8.84684 7.07736C8.84629 5.89801 8.84684 4.7181 8.84684 3.53875C8.25689 3.5382 7.66749 3.5393 7.07754 3.53875Z" fill="#A3AEC9"/>
</svg>
