<svg width="82" height="26" viewBox="0 0 82 26" fill="none" xmlns="http://www.w3.org/2000/svg">
    <path d="M10.2416 9.29261V12.0521H16.8375C16.6356 13.6001 16.1196 14.7331 15.3343 15.5295C14.3696 16.4942 12.8665 17.5487 10.2416 17.5487C6.18085 17.5487 3.00629 14.2732 3.00629 10.2124C3.00629 6.1517 6.18085 2.87619 10.2416 2.87619C12.429 2.87619 14.0331 3.73994 15.2109 4.85047L17.1516 2.90985C15.5138 1.31696 13.3152 0.105469 10.2416 0.105469C4.6777 0.105469 0 4.63734 0 10.2012C0 15.7651 4.6777 20.297 10.2416 20.297C13.2479 20.297 15.5138 19.3098 17.2862 17.4702C19.1034 15.6529 19.6755 13.0841 19.6755 11.0201C19.6755 10.3807 19.6306 9.78618 19.5297 9.29261H10.2416Z" fill="#4285F4"/>
    <path d="M27.9204 7.04919C24.3196 7.04919 21.3806 9.78627 21.3806 13.5666C21.3806 17.3132 24.3196 20.0839 27.9204 20.0839C31.5212 20.0839 34.4602 17.3244 34.4602 13.5666C34.4602 9.78627 31.5212 7.04919 27.9204 7.04919ZM27.9204 17.5151C25.9461 17.5151 24.241 15.8886 24.241 13.5666C24.241 11.2221 25.9461 9.618 27.9204 9.618C29.8947 9.618 31.5997 11.2221 31.5997 13.5666C31.5997 15.8886 29.8947 17.5151 27.9204 17.5151Z" fill="#EA4335"/>
    <path d="M59.98 8.50747H59.8791C59.2397 7.74468 58.0057 7.04919 56.4465 7.04919C53.1934 7.04919 50.3554 9.88722 50.3554 13.5666C50.3554 17.2235 53.1934 20.0839 56.4465 20.0839C58.0057 20.0839 59.2397 19.3885 59.8791 18.6032H59.98V19.5118C59.98 22.0021 58.6451 23.337 56.5026 23.337C54.7527 23.337 53.6646 22.0807 53.2159 21.015L50.7256 22.047C51.4435 23.7745 53.3393 25.8946 56.5026 25.8946C59.8566 25.8946 62.6947 23.9203 62.6947 19.108V7.38572H59.98V8.50747ZM56.6933 17.5151C54.719 17.5151 53.2159 15.8325 53.2159 13.5666C53.2159 11.267 54.719 9.618 56.6933 9.618C58.6451 9.618 60.1707 11.3006 60.1707 13.589C60.1819 15.8662 58.6451 17.5151 56.6933 17.5151Z" fill="#4285F4"/>
    <path d="M42.5032 7.04919C38.9023 7.04919 35.9633 9.78627 35.9633 13.5666C35.9633 17.3132 38.9023 20.0839 42.5032 20.0839C46.104 20.0839 49.043 17.3244 49.043 13.5666C49.043 9.78627 46.104 7.04919 42.5032 7.04919ZM42.5032 17.5151C40.5289 17.5151 38.8238 15.8886 38.8238 13.5666C38.8238 11.2221 40.5289 9.618 42.5032 9.618C44.4774 9.618 46.1825 11.2221 46.1825 13.5666C46.1825 15.8886 44.4774 17.5151 42.5032 17.5151Z" fill="#FBBC05"/>
    <path d="M64.9382 0.374634H67.7538V20.0838H64.9382V0.374634Z" fill="#34A853"/>
    <path d="M76.4473 17.5151C74.9891 17.5151 73.9571 16.8533 73.284 15.5408L82 11.94L81.7083 11.1997C81.1699 9.7414 79.5097 7.04919 76.1333 7.04919C72.7792 7.04919 69.9861 9.68531 69.9861 13.5666C69.9861 17.2235 72.7456 20.0839 76.4473 20.0839C79.4312 20.0839 81.1587 18.2555 81.8766 17.201L79.6555 15.7203C78.9152 16.7972 77.9056 17.5151 76.4473 17.5151ZM76.2454 9.49461C77.4008 9.49461 78.388 10.0891 78.7133 10.9305L72.8241 13.3647C72.8241 10.6276 74.7647 9.49461 76.2454 9.49461Z" fill="#EA4335"/>
</svg>
