<svg width="21" height="14" viewBox="0 0 21 14" fill="none" xmlns="http://www.w3.org/2000/svg">
    <path d="M5.85767 0.019843C7.5827 -0.181361 9.27833 1.17458 9.4707 2.86031C9.71917 4.49093 8.48306 6.14518 6.84798 6.46011C5.37053 6.79778 3.77018 5.9501 3.15747 4.60553C2.74335 3.74736 2.7576 2.70635 3.19131 1.85779C3.68825 0.85615 4.72398 0.124819 5.85767 0.019843Z" fill="#A3AEC9"/>
    <path d="M14.4016 0.0190188C15.2147 -0.0588382 16.0572 0.163361 16.71 0.647999C17.6264 1.3076 18.1491 2.45183 18.0351 3.5637C17.9283 4.96075 16.7999 6.20559 15.3964 6.46453C13.9937 6.77158 12.4531 6.056 11.7949 4.80504C11.2962 3.90225 11.2748 2.76588 11.7353 1.84472C12.2224 0.836955 13.2697 0.116996 14.4016 0.0190188Z" fill="#A3AEC9"/>
    <path d="M2.87784 9.1615C4.36152 8.39168 6.12484 8.23771 7.75636 8.55614C9.74589 8.94368 11.5039 10.3171 12.3437 12.1271C12.365 12.7508 12.3437 13.3754 12.3526 13.9991C8.23549 13.9983 4.1184 14.0009 0.0013053 13.9974C0.010211 13.3728 -0.0129437 12.7482 0.0119922 12.1244C0.596204 10.8612 1.63728 9.81497 2.87784 9.1615Z" fill="#A3AEC9"/>
    <path d="M11.3081 9.23766C12.977 8.33487 15.0129 8.17916 16.8341 8.68654C18.4852 9.14756 19.8825 10.304 20.7517 11.7431C20.8461 11.9233 21.0197 12.0869 20.9984 12.3038C20.9957 12.8689 20.9975 13.4341 20.9966 14.0001C18.4629 13.9974 15.9293 14.0009 13.3956 13.9983C13.392 13.3177 13.409 12.6363 13.3885 11.9565C12.8871 10.9313 12.1826 9.98999 11.3081 9.23766Z" fill="#A3AEC9"/>
</svg>
