<svg width="26" height="26" viewBox="0 0 26 26" fill="none" xmlns="http://www.w3.org/2000/svg">
    <path d="M12.2077 0.0260829C15.0225 -0.153437 17.8911 0.597379 20.2398 2.16554C22.7941 3.84353 24.7146 6.4603 25.5362 9.40654C26.246 11.9082 26.1152 14.6137 25.321 17.0784C24.3402 20.1302 22.1392 22.7407 19.3634 24.3183C17.2299 25.5359 14.743 26.1135 12.2931 25.9815C9.55314 25.8464 6.8712 24.7967 4.75032 23.0575C2.48602 21.1788 0.823906 18.5336 0.273385 15.6264C-0.300338 12.7519 0.0097259 9.65787 1.38603 7.04743C2.75706 4.32717 5.14054 2.15392 7.9522 0.999716C9.30319 0.442147 10.748 0.107395 12.2077 0.0260829ZM11.6118 2.92481C10.0288 3.11277 8.48585 3.67351 7.17388 4.58378C5.25655 5.94074 3.82224 7.97777 3.21372 10.2492C3.30231 10.6378 3.70518 10.8395 4.04161 10.98C4.60373 11.2102 5.19011 10.9124 5.71004 10.7054C7.32891 9.96411 9.03532 9.40654 10.7913 9.10347C11.8364 8.91444 12.9037 8.96513 13.9584 9.04116C15.4644 9.18055 16.8913 9.72334 18.2855 10.2799C19.1177 10.6421 19.9034 11.0993 20.6986 11.5344C21.0993 11.7181 21.5486 11.9589 21.9989 11.8079C22.3564 11.7012 22.7688 11.5333 22.9175 11.1606C22.6264 9.49313 21.9451 7.8859 20.9179 6.53738C19.8422 5.09277 18.2824 4.05367 16.5844 3.4866C14.9919 2.95543 13.2802 2.75796 11.6118 2.92481ZM11.3798 11.5566C10.824 11.7192 10.5761 12.3327 10.6479 12.8713C10.5867 13.9009 11.3661 14.8904 12.3827 15.0593C12.9754 15.1322 13.6167 15.1417 14.1598 14.8544C14.8126 14.5176 15.264 13.8196 15.2914 13.0825C15.3178 12.6347 15.3305 12.1046 14.955 11.7868C14.5226 11.3718 13.8824 11.5302 13.3446 11.5006C12.6907 11.5312 12.0252 11.4362 11.3798 11.5566ZM4.28206 15.1628C3.88974 15.224 3.51745 15.3814 3.1979 15.6169C3.48159 16.3223 3.6883 17.0604 4.06375 17.7268C5.19538 19.9127 7.16544 21.6466 9.46666 22.5083C9.76302 22.4207 9.975 22.1609 10.1142 21.8959C10.4106 21.2918 10.3905 20.6001 10.4127 19.9444C10.4085 19.1017 10.3272 18.1798 9.78306 17.4966C9.31691 17.2146 8.75162 17.1048 8.31816 16.7563C7.72862 16.3255 7.47023 15.6137 7.21185 14.9611C6.22998 14.8745 5.25233 15.0255 4.28206 15.1628ZM18.5671 15.4405C18.2592 16.1048 17.9027 16.8207 17.2362 17.1893C16.7932 17.4575 16.2691 17.5282 15.804 17.7405C15.0636 18.5209 14.9666 19.6656 14.9181 20.6878C14.8706 21.427 14.9529 22.2813 15.5836 22.7702C16.4315 22.4893 17.2678 22.1535 18.0303 21.6815C20.0078 20.4998 21.5222 18.6106 22.3259 16.4564C22.0053 16.1808 21.6235 15.9844 21.2122 15.8904C20.3569 15.62 19.4667 15.4374 18.5671 15.4405Z" fill="white"/>
</svg>
