<svg width="24" height="24" viewBox="0 0 24 24" fill="none" xmlns="http://www.w3.org/2000/svg">
    <path d="M11.759 0.111982C12.0461 0.0114375 12.354 -0.00171771 12.6561 0.000161615C15.7626 0.00298061 18.8701 -0.00265749 21.9766 0.0029805C22.7833 0.0114375 23.5543 0.542348 23.8471 1.29408C24.0222 1.69908 24.0005 2.15012 23.9977 2.58142C23.9958 5.58741 24.0015 8.59246 23.9949 11.5984C23.9958 12.2506 23.6136 12.821 23.1401 13.2391C19.7832 16.621 16.431 20.0066 13.0713 23.3856C12.3012 24.2163 10.8534 24.2012 10.0956 23.3612C7.08703 20.3542 4.07655 17.3492 1.06513 14.3441C0.751653 14.0265 0.395817 13.7277 0.210369 13.3105C-0.173707 12.54 -0.0249721 11.5327 0.600093 10.9313C4.08973 7.45734 7.58784 3.99186 11.0765 0.518857C11.2686 0.331863 11.5058 0.197491 11.759 0.111982ZM17.3808 4.19859C16.464 4.3696 15.7278 5.21624 15.7146 6.15309C15.6751 7.08618 16.3548 7.98544 17.2641 8.20344C18.2262 8.4703 19.3332 7.9206 19.6938 6.98939C19.9809 6.26397 19.8105 5.3788 19.2692 4.81407C18.8023 4.30195 18.0605 4.06515 17.3808 4.19859Z" fill="white"/>
</svg>
