<svg width="30" height="30" viewBox="0 0 30 30" fill="none" xmlns="http://www.w3.org/2000/svg">
    <path d="M1.97151 3.28321C3.34011 1.54274 5.36309 0.378675 7.50986 0.0827253C9.72738 -0.237182 12.0565 0.380084 13.8468 1.77246C14.1066 1.98808 14.4563 2.18538 14.4998 2.56588C14.576 3.00558 14.2019 3.44246 13.772 3.42555C13.5149 3.43119 13.3162 3.24657 13.1244 3.09718C11.6402 1.87111 9.66753 1.31162 7.78603 1.55966C5.91407 1.79501 4.14821 2.82378 2.99184 4.36695C1.78649 5.94394 1.23279 8.04236 1.52936 10.0351C1.77424 11.7164 2.44358 13.2976 3.23264 14.7759C4.7128 17.4761 6.59429 19.924 8.67032 22.1563C9.07845 21.7068 9.47162 21.2403 9.89064 20.802C10.258 20.3933 10.9912 20.6259 11.0919 21.1684C11.1844 21.494 10.9926 21.7956 10.779 22.014C10.2239 22.613 9.70562 23.2514 9.12199 23.8221C8.82133 24.104 8.33837 24.0067 8.09213 23.6967C6.0161 21.532 4.13189 19.1588 2.56874 16.5699C1.34026 14.487 0.273674 12.2153 0.036957 9.75746C-0.176632 7.44765 0.544402 5.06877 1.97151 3.28321Z" fill="white"/>
    <path d="M18.6019 3.09438C20.6657 2.72374 22.8492 3.0507 24.7102 4.05411C26.691 5.1012 28.3005 6.87408 29.1888 8.98378C30.0554 11.0075 30.2214 13.3216 29.718 15.4679C28.9956 18.6233 27.3413 21.4419 25.5388 24.0533C24.113 26.077 22.5322 27.9838 20.8221 29.7552C20.5541 30.0667 20.0426 30.0892 19.7705 29.775C17.7815 27.7174 15.9708 25.4752 14.3709 23.0823C12.9003 20.8415 11.5861 18.4373 10.9167 15.8005C10.3399 13.6147 10.4365 11.2288 11.3004 9.13739C12.5357 6.01019 15.3858 3.65387 18.6019 3.09438ZM16.5177 5.38447C14.5029 6.44002 12.9479 8.38484 12.3261 10.6326C11.8854 12.1645 11.9112 13.8134 12.303 15.3537C12.9043 17.7608 14.0934 19.9565 15.4212 22.0084C16.8646 24.2083 18.5053 26.2644 20.2861 28.1796C23.0015 25.2356 25.483 21.9915 27.208 18.3132C27.8257 16.9392 28.3277 15.4876 28.4977 13.9741C28.7167 12.0602 28.2746 10.0774 27.2774 8.45248C26.2217 6.71061 24.5416 5.38165 22.6342 4.80384C20.6248 4.17671 18.3842 4.38529 16.5177 5.38447Z" fill="white"/>
    <path d="M7.58862 4.93496C8.71234 4.59814 9.96667 4.82221 10.9299 5.50572C11.1802 5.67342 11.4414 5.90877 11.4455 6.24559C11.4849 6.73884 10.9734 7.16303 10.5176 7.00238C10.1367 6.81353 9.8143 6.49785 9.39392 6.39216C8.37903 6.05816 7.19953 6.49081 6.59958 7.39698C5.93976 8.32992 5.99282 9.71384 6.72202 10.5904C7.20633 11.2232 7.98042 11.5403 8.74771 11.5586C9.45786 11.5713 9.63472 12.6959 8.99123 12.9707C8.4008 13.1511 7.75867 12.9524 7.19409 12.748C5.56836 12.1026 4.49089 10.2649 4.70856 8.47085C4.85685 6.82903 6.05404 5.3662 7.58862 4.93496Z" fill="white"/>
    <path d="M19.1406 8.58776C21.188 7.97613 23.5348 9.15429 24.3429 11.1935C25.2163 13.1764 24.4708 15.7201 22.6832 16.8645C20.9459 18.0779 18.4114 17.7382 17.0251 16.1133C15.5776 14.5434 15.4715 11.8897 16.7925 10.2028C17.3815 9.42346 18.2141 8.84002 19.1406 8.58776ZM19.6875 9.99704C18.4467 10.2423 17.4346 11.3894 17.3271 12.6972C17.2047 13.7824 17.6985 14.9014 18.561 15.5257C19.5419 16.2698 20.9676 16.2824 21.9621 15.5595C22.9988 14.8478 23.4981 13.4216 23.1484 12.1857C22.7716 10.6679 21.1649 9.64754 19.6875 9.99704Z" fill="white"/>
</svg>
