<svg width="17" height="18" viewBox="0 0 17 18" fill="none" xmlns="http://www.w3.org/2000/svg">
    <path d="M4.46761 1.30933C5.33788 0.459851 6.59332 0.0964921 7.80464 0.018176C9.15416 -0.06014 10.5801 0.0993144 11.7495 0.797809C12.7102 1.36084 13.3784 2.3218 13.6298 3.36813C13.7525 3.87824 13.8216 4.40599 13.7893 4.92951C13.7569 5.39165 13.21 5.74654 12.7595 5.53769C12.4559 5.42057 12.2736 5.10802 12.292 4.79898C12.2854 3.94315 12.0605 3.02311 11.3835 2.42128C10.6455 1.76089 9.59224 1.5852 8.61759 1.56686C7.6128 1.55557 6.5301 1.68539 5.71569 2.30063C4.98507 2.86084 4.67562 3.77876 4.65063 4.65011C4.6352 5.58779 4.64696 6.52546 4.64328 7.46244C7.80611 7.46455 10.9682 7.46173 14.1303 7.46385C14.8367 7.45467 15.5438 7.70515 16.0664 8.16305C16.6507 8.66187 17.0013 9.4034 16.9991 10.1548C17.0006 11.8735 16.9991 13.5915 16.9999 15.3096C17.0072 15.9982 16.7235 16.6833 16.2229 17.1765C15.7047 17.7021 14.9572 18.0083 14.2031 17.9998C10.3809 17.9977 6.55877 18.0019 2.73735 17.9977C1.31507 18.0111 0.0295024 16.8117 0.00671648 15.4464C-0.00577902 13.7538 0.00671647 12.0619 0.000101204 10.3693C-0.000633826 10.0391 0.000101151 9.70256 0.095655 9.38224C0.329394 8.52923 1.03429 7.81239 1.90824 7.53863C2.28163 7.41093 2.68222 7.39894 3.07473 7.39964C3.08134 6.48454 3.05856 5.56874 3.09016 4.65364C3.14897 3.43868 3.55544 2.18633 4.46761 1.30933ZM2.31618 8.98995C1.86561 9.16422 1.55248 9.6193 1.57012 10.0864C1.56939 11.8284 1.57086 13.5711 1.56939 15.3131C1.52455 15.9876 2.19416 16.5612 2.88289 16.4956C6.63374 16.4921 10.3839 16.4956 14.134 16.4942C14.4765 16.5019 14.8242 16.3735 15.0513 16.1238C15.2997 15.8655 15.3791 15.5064 15.4298 15.1692C15.4306 13.4533 15.4335 11.7374 15.4284 10.0215C15.4335 9.40411 14.8352 8.88341 14.2016 8.90811C10.5015 8.90599 6.80133 8.90811 3.10193 8.9067C2.83878 8.90811 2.56462 8.89259 2.31618 8.98995Z" fill="white"/>
    <path d="M8.05677 11.1942C8.7793 10.9741 9.60474 11.3925 9.86935 12.0634C10.1068 12.606 9.92374 13.2699 9.46509 13.653C9.0836 13.9882 8.51469 14.1173 8.02149 13.9578C7.40627 13.7709 6.94467 13.1796 6.96451 12.5552C6.96892 11.9364 7.44228 11.3649 8.05677 11.1942Z" fill="white"/>
</svg>
