<svg width="16" height="21" viewBox="0 0 16 21" fill="none" xmlns="http://www.w3.org/2000/svg">
    <path d="M7.09021 1.05868C8.60647 0.859796 10.188 1.16925 11.5077 1.94489C13.1799 2.90986 14.4241 4.59159 14.8346 6.48096C15.1942 8.16269 14.9277 9.92 14.417 11.5429C13.5602 14.1522 11.9461 16.4496 10.0543 18.4146C9.53167 18.9524 8.98753 19.4718 8.40362 19.9436C8.19201 20.1226 7.86266 20.1385 7.63832 19.973C7.3575 19.755 7.0918 19.518 6.83087 19.2769C4.96378 17.5355 3.33455 15.5014 2.23673 13.1856C1.49689 11.6168 1.02594 9.90329 1.00287 8.1619C0.9623 6.78326 1.3529 5.39666 2.09831 4.23679C3.19056 2.51448 5.06401 1.31165 7.09021 1.05868ZM3.90812 3.9854C2.93917 4.96151 2.35128 6.30276 2.28048 7.67504C2.20491 9.5827 2.76336 11.4689 3.64401 13.1458C4.73626 15.1983 6.25411 17.0105 8.00347 18.5355C9.11959 17.5713 10.1227 16.4791 11.001 15.2953C11.9811 13.9652 12.8005 12.4983 13.2802 10.9112C13.6541 9.63839 13.8561 8.27963 13.635 6.96066C13.3637 5.43564 12.4353 4.04348 11.1354 3.20181C10.0082 2.4588 8.61204 2.14775 7.27477 2.31878C6.00591 2.47073 4.7999 3.07135 3.90812 3.9854Z" fill="#566488" stroke="#566488" stroke-width="0.5"/>
    <path d="M7.40526 4.87485C8.17691 4.73006 9.00107 4.87724 9.66693 5.29568C10.4529 5.77379 11.0066 6.61068 11.1442 7.51996C11.2675 8.31469 11.0734 9.15555 10.6064 9.81266C10.0591 10.6098 9.13234 11.1332 8.16498 11.177C7.25808 11.2319 6.34482 10.8612 5.71636 10.2088C5.02983 9.51036 4.70207 8.48413 4.85561 7.51678C5.04017 6.2153 6.11253 5.10873 7.40526 4.87485ZM7.55561 6.14291C6.8651 6.29724 6.28914 6.87002 6.14038 7.56451C5.93115 8.40379 6.37028 9.34568 7.15308 9.7156C7.90007 10.0911 8.87856 9.90732 9.42588 9.2725C10.0376 8.61062 10.0703 7.50962 9.49828 6.81274C9.05278 6.23519 8.26124 5.97187 7.55561 6.14291Z" fill="#566488" stroke="#566488" stroke-width="0.5"/>
</svg>
