<svg width="40" height="38" viewBox="0 0 40 38" fill="none" xmlns="http://www.w3.org/2000/svg">
    <path d="M13.1921 8.43206C13.7389 7.46452 14.9043 6.90179 16.0018 7.07271C16.5975 7.15267 17.1502 7.44753 17.584 7.85734C18.2587 8.49903 18.9324 9.14272 19.6151 9.77442C20.3507 9.13773 21.0094 8.41907 21.7231 7.75838C22.4247 7.11369 23.4692 6.8768 24.3818 7.14967C25.3883 7.43454 26.1809 8.32511 26.3548 9.35562C26.5028 10.2122 26.2349 11.1378 25.6242 11.7615C25.3393 12.0533 25.0195 12.3092 24.7576 12.6241C26.6397 12.6561 28.5228 12.6261 30.4049 12.6381C31.2495 12.6191 32.0132 13.3837 31.9942 14.2283C31.9962 14.799 32.0092 15.3708 31.9882 15.9415C31.9582 16.7501 31.2165 17.4538 30.4059 17.4338C23.5042 17.4398 16.6025 17.4318 9.70078 17.4378C9.05709 17.4688 8.41239 17.0869 8.14952 16.4962C7.91063 15.9405 8.03757 15.3218 8.00659 14.7371C7.9856 14.2093 8.00259 13.6236 8.37841 13.2098C8.67227 12.848 9.13505 12.6401 9.59883 12.6391C11.239 12.6261 12.8803 12.6531 14.5205 12.6271C14.0527 12.1583 13.462 11.7885 13.1541 11.1818C12.6794 10.3432 12.6974 9.25767 13.1921 8.43206Z" fill="white"/>
    <path d="M9.60683 19.034C12.5394 19.033 15.471 19.035 18.4036 19.034C18.4006 23.0311 18.4046 27.0282 18.4016 31.0263C15.8669 30.9333 13.3351 30.6734 10.8472 30.1817C10.1386 30.0387 9.59984 29.3581 9.61083 28.6374C9.60084 25.4369 9.60883 22.2355 9.60683 19.034Z" fill="white"/>
    <path d="M21.6011 19.0347C24.5337 19.0327 27.4653 19.0347 30.3979 19.0337C30.3939 22.2342 30.4019 25.4356 30.3939 28.6361C30.3989 29.2728 29.9831 29.8885 29.3874 30.1124C29.0156 30.2444 28.6218 30.2893 28.236 30.3563C26.044 30.7351 23.8251 30.943 21.6041 31.023C21.5971 27.0269 21.6031 23.0308 21.6011 19.0347Z" fill="white"/>
    <rect x="33.4523" y="2.88119" width="6" height="41.2752" transform="rotate(47.7897 33.4523 2.88119)" fill="white" stroke="#4E7FF1" stroke-width="3"/>
</svg>
