<svg width="24" height="24" viewBox="0 0 24 24" fill="none" xmlns="http://www.w3.org/2000/svg">
    <path d="M21.3928 0.329901C22.1744 -0.0206825 23.066 -0.0805926 23.8987 0.0969181C24.183 1.32063 23.8599 2.66195 23.0427 3.61496C21.4949 5.4877 19.9982 7.40148 18.496 9.30972C19.5408 13.2727 20.5944 17.2345 21.6437 21.1963C21.6781 21.3705 21.7614 21.5757 21.6293 21.7299C21.1973 22.2902 20.7188 22.8116 20.2736 23.3608C20.147 23.4973 20.0282 23.6859 19.8217 23.697C19.5752 23.7391 19.3964 23.5261 19.3109 23.3242C17.56 19.8638 15.8034 16.4079 14.0525 12.9476C12.0706 14.7327 10.0687 16.4945 8.08899 18.2818C8.23 19.7562 8.37434 21.2307 8.51757 22.7051C8.63971 23.2121 8.10454 23.4773 7.82807 23.8068C7.66596 24.022 7.30289 24.0797 7.12191 23.8567C6.99866 23.6759 6.93316 23.4651 6.84988 23.2654C6.26142 21.8109 5.67073 20.3575 5.07893 18.9042C3.50118 18.2574 1.91899 17.6217 0.339011 16.9804C0.163582 16.9249 0.0358958 16.7818 0.000365758 16.601C-0.0118477 16.2837 0.284606 16.1062 0.471138 15.8965C0.675436 15.7223 0.849755 15.4105 1.16175 15.4627C2.69176 15.598 4.22177 15.75 5.75178 15.8987C7.51052 13.9073 9.28258 11.928 11.0424 9.93656C7.55715 8.17144 4.06966 6.41186 0.586611 4.64452C0.398968 4.56797 0.255737 4.38713 0.271282 4.17856C0.304591 3.9489 0.515551 3.81688 0.673215 3.67376C1.19839 3.24884 1.70136 2.79619 2.22876 2.37571C2.41085 2.21151 2.65401 2.30582 2.85942 2.35574C6.79659 3.41304 10.7404 4.44371 14.6765 5.50323C16.4063 4.1486 18.1373 2.79619 19.8361 1.40273C20.3313 1.01443 20.7998 0.568431 21.3928 0.329901Z" fill="white"/>
</svg>
