<svg width="15" height="14" viewBox="0 0 15 14" fill="none" xmlns="http://www.w3.org/2000/svg">
    <path d="M8.79734 1.28781C10.8653 0.861585 12.9317 0.426226 14.9997 0C14.5681 2.06796 14.1366 4.13515 13.7088 6.20387C13.1791 5.66957 12.6463 5.13754 12.1128 4.60705C9.94434 6.77623 7.77515 8.94466 5.60749 11.1131C6.13951 11.6474 6.67306 12.1802 7.2066 12.7129C5.13484 13.1354 3.06688 13.5776 0.995117 14C1.42591 11.932 1.85518 9.86332 2.28673 7.79613C2.82104 8.3251 3.35078 8.85941 3.88356 9.39067C6.05274 7.22301 8.22117 5.05382 10.3896 2.88464C9.86138 2.34957 9.32555 1.82288 8.79734 1.28781Z" fill="#A3AEC9"/>
</svg>
