<svg width="18" height="21" viewBox="0 0 18 21" fill="none" xmlns="http://www.w3.org/2000/svg">
    <path d="M4.22924 0.305603C4.60865 -0.0915638 5.32064 -0.110938 5.69521 0.302374C6.08107 0.691469 6.06493 1.38086 5.6613 1.7522C4.94285 2.50455 4.20018 3.23269 3.48173 3.98666C7.87317 3.99151 12.263 3.98021 16.6544 3.99151C17.2114 3.95114 17.7281 4.44034 17.7087 4.99896C17.7281 5.55434 17.2082 6.03708 16.6609 6.00802C12.2501 6.01609 7.83927 6.00802 3.43007 6.01125C4.10493 6.66512 4.76041 7.33998 5.43689 7.99385C5.67906 8.23764 5.97129 8.49112 6.00035 8.85923C6.10045 9.43237 5.60803 10.0023 5.03326 10.0184C4.68615 10.0427 4.37616 9.84407 4.14852 9.6019C2.86983 8.30222 1.58308 7.01062 0.306008 5.71095C-0.0943885 5.34123 -0.10569 4.65507 0.294706 4.2805C1.60245 2.95177 2.90697 1.61981 4.22924 0.305603Z" fill="#566488"/>
    <path d="M12.3421 10.5204C12.7473 10.1443 13.4335 10.1959 13.7935 10.6109C15.09 11.9025 16.3848 13.1957 17.6748 14.4937C18.1188 14.8764 18.101 15.6158 17.6651 15.9984C16.3541 17.3272 15.0415 18.6543 13.7241 19.9766C13.3027 20.4302 12.4858 20.335 12.1758 19.8022C11.9126 19.4244 11.9708 18.8658 12.2953 18.5445C13.0379 17.7744 13.8016 17.0269 14.5475 16.2616C10.1383 16.26 5.73072 16.2665 1.32313 16.2584C0.808106 16.2778 0.322141 15.8483 0.297923 15.3284C0.236572 14.765 0.737068 14.2144 1.3086 14.2435C5.7178 14.2322 10.127 14.2435 14.5362 14.237C13.7838 13.4782 13.0137 12.7355 12.2727 11.9638C11.8884 11.5763 11.9239 10.8708 12.3421 10.5204Z" fill="#566488"/>
</svg>
