<svg width="22" height="26" viewBox="0 0 22 26" fill="none" xmlns="http://www.w3.org/2000/svg">
    <path d="M0.03223 4.71973C3.68065 3.13158 7.33875 1.56007 11.0011 0C14.5024 1.47271 17.98 2.99846 21.4716 4.48988C21.753 4.59077 22.0152 4.8227 21.9937 5.13679C22.0033 7.3573 22.0001 9.57884 21.9958 11.7993C22.0012 15.1857 20.7442 18.542 18.5687 21.1858C16.6822 23.4874 14.0619 25.27 11.1011 25.9887C10.9109 26.0334 10.724 25.9336 10.5413 25.8941C7.45907 25.0464 4.78077 23.061 2.93507 20.5472C1.084 18.0427 0.0214867 14.9881 0.00322306 11.9033C-0.00107426 9.6506 0.00537165 7.3989 0 5.14615C0 5.00367 0.0150407 4.86118 0.03223 4.71973ZM15.6175 9.17322C13.528 11.193 11.4384 13.2128 9.35312 15.2377C8.50225 14.4431 7.67824 13.6215 6.83811 12.8165C6.54482 12.5471 6.29128 12.2039 5.89055 12.0791C5.3233 11.8545 4.64003 12.0999 4.30269 12.5804C3.9342 13.0911 4.02874 13.8378 4.49285 14.2632C6.11294 15.8264 7.72658 17.3969 9.34882 18.958C12.0733 16.3121 14.8107 13.6777 17.532 11.0287C18.0423 10.5523 18.0573 9.68284 17.5481 9.2013C17.0614 8.66567 16.1214 8.65735 15.6175 9.17322Z" fill="white"/>
</svg>
