<svg width="23" height="21" viewBox="0 0 23 21" fill="none" xmlns="http://www.w3.org/2000/svg">
    <path d="M6.90803 2.0857C6.96624 0.970653 7.98494 0.0109764 9.12438 0.00357802C10.7058 -0.000649628 12.2861 -0.00170654 13.8675 0.00357802C15.0188 0.00780567 16.0472 0.987564 16.0904 2.11423C16.1087 2.91326 16.0925 3.71334 16.0968 4.51237C17.6211 4.50708 19.1454 4.51025 20.6697 4.51131C21.5331 4.49228 22.3761 4.99643 22.7534 5.75741C22.9464 6.11887 23.0078 6.53212 22.9992 6.93692C22.9949 10.4226 22.9981 13.9094 22.9971 17.3961C22.9949 17.8908 23.0391 18.4076 22.8321 18.8726C22.499 19.7277 21.5914 20.3153 20.66 20.2931C14.5165 20.291 8.37194 20.2984 2.22846 20.29C1.02542 20.2857 -0.0288548 19.2182 0.00240702 18.0398C0.00132903 14.2687 -0.00298271 10.4977 0.00348524 6.72554C-0.00837267 5.56505 1.0362 4.51765 2.22199 4.51448C3.78077 4.50285 5.34063 4.51448 6.8994 4.50814C6.9091 3.70066 6.88647 2.89318 6.90803 2.0857ZM9.19768 2.25692C9.20092 3.00838 9.19768 3.75984 9.19876 4.51237C10.7327 4.50497 12.2656 4.51554 13.7996 4.50708C13.7986 3.75667 13.7996 3.00732 13.7996 2.25692C12.2656 2.25374 10.7317 2.2548 9.19768 2.25692Z" fill="#A3AEC9"/>
</svg>
