<svg width="24" height="24" viewBox="0 0 24 24" fill="none" xmlns="http://www.w3.org/2000/svg">
    <path d="M10.7299 0.0671922C13.0015 -0.174718 15.3425 0.23878 17.3824 1.27206C19.955 2.55662 22.0334 4.79945 23.112 7.46421C24.1249 9.92457 24.274 12.7244 23.5453 15.2813C22.7312 18.1889 20.7635 20.7468 18.1721 22.2939C16.0515 23.5775 13.5229 24.1607 11.0544 23.9619C8.5643 23.7735 6.14641 22.7739 4.24624 21.1556C2.16693 19.4041 0.71132 16.9268 0.212361 14.2536C-0.311922 11.5251 0.141081 8.61657 1.49915 6.18996C3.34305 2.81353 6.89673 0.444122 10.7299 0.0671922ZM10.8152 4.07372C10.5461 4.19842 10.3594 4.47877 10.351 4.77601C10.2112 7.08916 10.0809 9.40418 9.94207 11.7183C9.88767 12.264 10.1053 12.8341 10.5226 13.1932C11.9904 14.4759 13.4573 15.7585 14.9232 17.0431C15.1174 17.2278 15.3969 17.3347 15.6632 17.2681C15.9971 17.2044 16.2091 16.9147 16.4323 16.6859C16.7071 16.4008 16.7099 15.9086 16.4417 15.6188C15.4166 14.4224 14.3802 13.2372 13.3485 12.0464C13.0071 11.6442 12.7923 11.1285 12.7614 10.6006C12.6479 8.65876 12.5391 6.71691 12.4228 4.77601C12.4162 4.39814 12.1086 4.03902 11.7259 4.00996C11.4239 3.99495 11.1032 3.9612 10.8152 4.07372Z" fill="white"/>
</svg>
