<svg width="16" height="13" viewBox="0 0 16 13" fill="none" xmlns="http://www.w3.org/2000/svg">
    <path d="M4.08742 0.222591C5.11244 0.0652576 6.15152 0.0299124 7.18686 0.00676597C7.92754 -0.00543284 8.66823 -0.00136666 9.40829 0.0208414C10.2275 0.051182 11.0482 0.0902808 11.8596 0.213207C12.1274 0.260126 12.413 0.295471 12.6388 0.460624C12.8337 0.597939 12.9566 0.814077 13.031 1.03647C13.3795 2.05054 13.6529 3.08837 13.9259 4.12496C14.0554 3.99922 14.2306 3.9182 14.4129 3.91977C14.716 3.91914 15.0191 3.91945 15.3222 3.91977C15.5593 3.92071 15.7889 4.05677 15.9062 4.26227C16.021 4.45526 16.031 4.70487 15.9331 4.90662C15.8302 5.12776 15.6028 5.28384 15.3591 5.29886C15.188 5.30668 15.0166 5.29948 14.8452 5.3023C15.1499 5.77774 15.4048 6.33232 15.3375 6.91098C15.2374 7.92442 15.0091 8.91909 14.8102 9.91626C14.8027 10.4777 14.8108 11.0395 14.8061 11.6013C14.803 11.8703 14.5596 12.1171 14.2872 12.1045C13.7448 12.1039 13.2024 12.1039 12.6604 12.1045C12.392 12.1108 12.1562 11.8662 12.153 11.6016C12.1502 11.2832 12.1527 10.9647 12.1521 10.6466C9.38421 10.6466 6.61633 10.6466 3.84845 10.6466C3.84751 10.9647 3.85033 11.2828 3.8472 11.6013C3.84345 11.8036 3.70863 11.9932 3.52252 12.0695C3.4265 12.1149 3.31796 12.1036 3.21505 12.1045C2.71459 12.1042 2.21381 12.1039 1.71335 12.1045C1.49658 12.1149 1.29421 11.9588 1.22352 11.7583C1.18004 11.6391 1.19599 11.5106 1.19349 11.3867C1.1913 10.8969 1.19724 10.4067 1.19068 9.91689C0.991741 8.92097 0.763404 7.92754 0.663312 6.91504C0.594811 6.33482 0.849734 5.77868 1.15564 5.3023C0.966718 5.29698 0.777167 5.31262 0.58918 5.29292C0.266068 5.25225 0.00269938 4.95354 0.000822646 4.62824C-0.0179447 4.26947 0.287025 3.93353 0.646734 3.92133C0.961088 3.91727 1.27513 3.92039 1.58948 3.91977C1.77121 3.91852 1.94512 4.00047 2.07525 4.12496C2.34237 3.10558 2.61387 2.08651 2.95168 1.08808C3.02706 0.846607 3.15156 0.60701 3.36394 0.45906C3.57445 0.306731 3.83719 0.264505 4.08742 0.222591ZM4.2116 1.01176C4.09587 1.03303 3.97795 1.04867 3.86691 1.08933C3.77401 1.12562 3.7518 1.23384 3.71833 1.31673C3.38584 2.29514 3.12059 3.29481 2.85753 4.29386C3.46153 4.11589 4.08805 4.03112 4.71206 3.95793C6.60225 3.75993 8.51027 3.74242 10.4055 3.8766C11.3251 3.95449 12.2528 4.03894 13.1433 4.29355C12.8799 3.29575 12.615 2.29701 12.2828 1.31923C12.2487 1.23353 12.2259 1.11967 12.1267 1.08652C11.9406 1.02771 11.7451 1.0055 11.5528 0.976415C10.8315 0.880701 10.1039 0.846294 9.37733 0.820332C8.47993 0.793433 7.5816 0.79312 6.68389 0.818456C5.85781 0.847545 5.02955 0.886018 4.2116 1.01176ZM2.71865 6.51029C2.43652 6.58536 2.22976 6.87031 2.24947 7.16215C2.2576 7.46555 2.5094 7.73768 2.81093 7.77084C3.0915 7.81244 3.38458 7.64228 3.48906 7.3786C3.58915 7.1462 3.53316 6.8578 3.35362 6.67951C3.19378 6.5128 2.94042 6.44617 2.71865 6.51029ZM12.8912 6.52343C12.6707 6.60069 12.5002 6.80557 12.4693 7.03766C12.432 7.27131 12.5378 7.51998 12.732 7.65542C12.9206 7.7943 13.1871 7.81525 13.3951 7.70828C13.6003 7.60819 13.7423 7.39142 13.7511 7.1634C13.7655 6.92881 13.6381 6.69296 13.4348 6.57567C13.2728 6.47901 13.0682 6.45993 12.8912 6.52343ZM5.04581 8.15526C4.94728 8.19842 4.88128 8.30508 4.88942 8.41299C4.89317 8.56345 5.03956 8.67949 5.18625 8.66542C7.06331 8.66573 8.94005 8.66573 10.8168 8.66542C10.9525 8.67668 11.0889 8.57909 11.1083 8.44146C11.139 8.28819 11.007 8.12961 10.8506 8.13305C8.96163 8.13023 7.07269 8.13305 5.18375 8.13148C5.13715 8.13242 5.08898 8.13524 5.04581 8.15526Z" fill="white"/>
</svg>
