<svg width="24" height="24" viewBox="0 0 24 24" fill="none" xmlns="http://www.w3.org/2000/svg">
    <path d="M15.7736 1.20294C16.4685 1.03943 17.237 0.860593 17.9187 1.16615C18.4644 1.41551 18.7158 2.02357 18.7699 2.5887C18.8476 3.44714 18.8016 4.3117 18.8139 5.1732C18.4654 5.17218 18.1169 5.17218 17.7684 5.1732C17.7531 4.34134 17.8022 3.50641 17.7265 2.67761C17.6938 2.43541 17.6315 2.08386 17.3249 2.06444C16.8323 2.00313 16.3428 2.14211 15.8686 2.25861C12.2683 3.24786 8.66493 4.22995 5.06972 5.23452C4.15406 5.57176 3.2108 5.9693 2.54347 6.71021C3.04422 6.37501 3.64411 6.20844 4.24603 6.21559C9.28832 6.21355 14.3296 6.21661 19.3719 6.21457C19.843 6.20946 20.3253 6.2115 20.775 6.37093C22.0207 6.77868 23.0161 7.98969 22.9987 9.32742C22.9977 13.0964 23.0039 16.8653 22.9957 20.6332C22.9875 22.162 21.615 23.5049 20.0872 23.4824C14.6832 23.4865 9.28014 23.4906 3.87609 23.4814C2.38507 23.4712 1.05654 22.1651 1.02895 20.6731C1.01464 17.2322 1.03201 13.7903 1.02077 10.3494C0.959454 9.59823 1.05143 8.84812 1.07187 8.09802C1.1107 7.24673 1.39072 6.37399 2.01104 5.76593C2.76625 5.02094 3.76776 4.59785 4.74985 4.23915C8.42068 3.21413 12.0956 2.20241 15.7736 1.20294ZM3.57768 7.35915C2.84699 7.61055 2.29514 8.2789 2.1163 9.02083C2.05396 10.2104 2.07338 11.4061 2.07031 12.5987C2.07235 15.2537 2.06724 17.9087 2.07235 20.5637C2.06724 21.3067 2.55165 22.0179 3.23942 22.2928C3.65024 22.4758 4.10909 22.4339 4.54751 22.4369C9.52234 22.4359 14.4972 22.4359 19.472 22.4369C19.9094 22.4329 20.3672 22.4758 20.7781 22.2949C21.4689 22.02 21.9553 21.3067 21.9502 20.5627C21.9564 16.8183 21.9523 13.0749 21.9533 9.3315C21.9615 8.20328 20.8874 7.23652 19.7786 7.26309C14.6035 7.26411 9.42934 7.26411 4.25421 7.26411C4.02631 7.26615 3.79535 7.28455 3.57768 7.35915Z" fill="white" stroke="white" stroke-width="0.5"/>
    <path d="M18.7947 13.5756C19.6122 13.3641 20.4737 14.1122 20.3756 14.9512C20.3419 15.7411 19.4855 16.3441 18.7303 16.109C17.9996 15.9312 17.5643 15.0564 17.8637 14.3666C18.0211 13.9732 18.3787 13.6645 18.7947 13.5756Z" fill="white" stroke="white" stroke-width="0.5"/>
</svg>
