<svg width="31" height="30" viewBox="0 0 31 30" fill="none" xmlns="http://www.w3.org/2000/svg">
    <path d="M10.6213 0.65273C14.4693 -0.537359 18.7943 -0.0873397 22.3012 1.89849C24.4699 3.11377 26.3332 4.86931 27.6634 6.97057C28.8915 8.88608 29.6662 11.0905 29.9099 13.3535C30.2111 16.0395 29.7664 18.8052 28.6326 21.2598C27.7677 23.1185 26.5319 24.809 24.9984 26.172C23.2446 27.7482 21.1158 28.909 18.8329 29.5043C16.3631 30.1618 13.7239 30.1647 11.25 29.5237C9.6509 29.1182 8.13092 28.4256 6.75039 27.5249C4.83019 28.1408 2.90941 28.7519 0.989212 29.3666C1.60389 27.5038 2.24317 25.6487 2.85198 23.7836C1.57283 22.0321 0.687441 19.9947 0.276096 17.8648C-0.132905 15.7623 -0.0883725 13.572 0.415555 11.4901C1.20719 8.13898 3.21997 5.1078 5.96286 3.03467C7.36448 1.98228 8.94189 1.15842 10.6213 0.65273ZM9.09892 6.8733C8.65945 6.91373 8.20885 7.04675 7.87661 7.34969C7.44065 7.76162 7.05392 8.23449 6.78848 8.77475C6.30975 9.75038 6.18494 10.8836 6.37244 11.9495C6.62851 13.2978 7.30178 14.5277 8.10279 15.627C8.92255 16.8153 9.83665 17.9404 10.8685 18.9511C11.9959 20.0621 13.2645 21.0413 14.6726 21.7702C15.255 22.0702 15.865 22.3087 16.475 22.5443C17.3709 22.8765 18.2804 23.1935 19.2273 23.3423C19.9298 23.4601 20.657 23.384 21.3268 23.1455C22.1413 22.8537 22.9229 22.3896 23.4544 21.6929C23.7333 21.3272 23.8411 20.869 23.9402 20.4289C24.0234 20.034 24.0849 19.6238 24.0228 19.2219C24.0046 19.001 23.7755 18.9113 23.6097 18.8152C22.5444 18.2955 21.4867 17.7605 20.4068 17.2706C20.1496 17.1528 19.8601 17.045 19.5753 17.1247C19.3497 17.1745 19.1921 17.3597 19.0579 17.5343C18.6935 18.0464 18.3372 18.5668 17.9241 19.0408C17.678 19.298 17.2825 19.3578 16.9526 19.2488C15.4138 18.6898 14.0275 17.754 12.8702 16.602C12.1225 15.8303 11.4709 14.9684 10.9207 14.0466C10.7871 13.8392 10.7402 13.558 10.8861 13.3441C11.2529 12.8032 11.7932 12.4001 12.1324 11.8399C12.2948 11.6032 12.3416 11.292 12.2239 11.026C11.751 9.91562 11.2934 8.79819 10.8351 7.68193C10.7361 7.45926 10.6394 7.22429 10.4613 7.05202C10.3125 6.91315 10.0992 6.89147 9.9058 6.87975C9.63684 6.86744 9.3673 6.85338 9.09892 6.8733Z" fill="white"/>
</svg>
